G04 EAGLE Gerber RS-274X export*
G75*
%MOMM*%
%FSLAX34Y34*%
%LPD*%
%INTop Copper*%
%IPPOS*%
%AMOC8*
5,1,8,0,0,1.08239X$1,22.5*%
G01*
%ADD10C,0.228600*%
%ADD11R,0.600000X2.200000*%
%ADD12R,2.200000X0.600000*%
%ADD13C,1.500000*%
%ADD14C,0.609600*%
%ADD15C,0.800000*%
%ADD16C,1.200000*%
%ADD17C,0.304800*%
%ADD18C,0.508000*%
%ADD19C,0.800000*%

G36*
X32174Y3813D02*
X32174Y3813D01*
X32197Y3811D01*
X32346Y3833D01*
X32497Y3851D01*
X32519Y3858D01*
X32542Y3862D01*
X32682Y3917D01*
X32825Y3968D01*
X32844Y3981D01*
X32866Y3989D01*
X32991Y4075D01*
X33118Y4157D01*
X33134Y4174D01*
X33153Y4187D01*
X33255Y4299D01*
X33360Y4408D01*
X33372Y4428D01*
X33387Y4445D01*
X33461Y4577D01*
X33539Y4707D01*
X33546Y4729D01*
X33557Y4749D01*
X33599Y4895D01*
X33645Y5039D01*
X33647Y5062D01*
X33653Y5084D01*
X33674Y5328D01*
X33690Y9106D01*
X34194Y9605D01*
X34194Y9606D01*
X34195Y9607D01*
X34299Y9737D01*
X34411Y9877D01*
X34412Y9878D01*
X34413Y9879D01*
X34486Y10033D01*
X34562Y10192D01*
X34562Y10193D01*
X34562Y10194D01*
X34597Y10353D01*
X34636Y10532D01*
X34636Y10533D01*
X34637Y10534D01*
X34634Y10706D01*
X34632Y10881D01*
X34632Y10882D01*
X34632Y10883D01*
X34592Y11040D01*
X34548Y11219D01*
X34548Y11220D01*
X34547Y11221D01*
X34443Y11442D01*
X34072Y12093D01*
X34024Y12158D01*
X33985Y12228D01*
X33972Y12243D01*
X33972Y15774D01*
X34007Y15826D01*
X34037Y15863D01*
X34045Y15881D01*
X34063Y15906D01*
X35715Y18768D01*
X38577Y20421D01*
X38639Y20466D01*
X38707Y20504D01*
X38715Y20511D01*
X42221Y20511D01*
X42316Y20447D01*
X42409Y20373D01*
X42459Y20349D01*
X42506Y20317D01*
X42710Y20230D01*
X42724Y20224D01*
X42727Y20223D01*
X42731Y20222D01*
X44489Y19636D01*
X44727Y19457D01*
X44796Y19417D01*
X44861Y19368D01*
X44946Y19329D01*
X45028Y19282D01*
X45105Y19258D01*
X45178Y19224D01*
X45271Y19206D01*
X45361Y19179D01*
X45441Y19173D01*
X45520Y19157D01*
X45614Y19161D01*
X45708Y19154D01*
X45788Y19167D01*
X45869Y19170D01*
X45959Y19194D01*
X46052Y19209D01*
X46127Y19240D01*
X46205Y19261D01*
X46329Y19323D01*
X46375Y19341D01*
X46393Y19354D01*
X46424Y19370D01*
X46728Y19552D01*
X46779Y19591D01*
X46835Y19622D01*
X46977Y19743D01*
X47004Y19764D01*
X47010Y19772D01*
X47021Y19781D01*
X47751Y20511D01*
X47905Y20511D01*
X48019Y20524D01*
X48133Y20528D01*
X48191Y20544D01*
X48251Y20551D01*
X48359Y20590D01*
X48469Y20620D01*
X48539Y20654D01*
X48579Y20669D01*
X48616Y20692D01*
X48688Y20728D01*
X48820Y20807D01*
X49822Y20557D01*
X49886Y20548D01*
X49947Y20531D01*
X50133Y20516D01*
X50167Y20511D01*
X50177Y20512D01*
X50191Y20511D01*
X51224Y20511D01*
X51332Y20403D01*
X51422Y20332D01*
X51506Y20254D01*
X51558Y20224D01*
X51605Y20186D01*
X51709Y20137D01*
X51808Y20080D01*
X51882Y20055D01*
X51920Y20037D01*
X51963Y20028D01*
X52040Y20002D01*
X52590Y19865D01*
X52665Y19855D01*
X52739Y19835D01*
X52837Y19832D01*
X52935Y19819D01*
X53011Y19827D01*
X53087Y19825D01*
X53235Y19849D01*
X53282Y19854D01*
X53300Y19860D01*
X53328Y19865D01*
X53878Y20002D01*
X53985Y20042D01*
X54095Y20074D01*
X54148Y20104D01*
X54204Y20125D01*
X54299Y20188D01*
X54399Y20244D01*
X54459Y20295D01*
X54494Y20318D01*
X54524Y20350D01*
X54586Y20403D01*
X54694Y20511D01*
X55727Y20511D01*
X55791Y20519D01*
X55855Y20517D01*
X56039Y20547D01*
X56073Y20551D01*
X56082Y20554D01*
X56096Y20557D01*
X57098Y20807D01*
X57230Y20728D01*
X57334Y20681D01*
X57434Y20626D01*
X57492Y20609D01*
X57547Y20584D01*
X57659Y20562D01*
X57770Y20531D01*
X57847Y20525D01*
X57889Y20516D01*
X57932Y20518D01*
X58013Y20511D01*
X58167Y20511D01*
X58897Y19781D01*
X58947Y19741D01*
X58991Y19694D01*
X59143Y19586D01*
X59170Y19564D01*
X59179Y19560D01*
X59190Y19552D01*
X59533Y19346D01*
X59683Y19278D01*
X59830Y19209D01*
X59841Y19207D01*
X59850Y19202D01*
X60011Y19170D01*
X60171Y19136D01*
X60182Y19136D01*
X60192Y19134D01*
X60356Y19140D01*
X60519Y19143D01*
X60530Y19145D01*
X60540Y19146D01*
X60698Y19188D01*
X60857Y19228D01*
X60869Y19234D01*
X60877Y19236D01*
X60906Y19251D01*
X61078Y19333D01*
X62961Y20421D01*
X63023Y20466D01*
X63091Y20504D01*
X63099Y20511D01*
X66605Y20511D01*
X66700Y20447D01*
X66793Y20373D01*
X66843Y20349D01*
X66890Y20317D01*
X67094Y20230D01*
X67108Y20224D01*
X67111Y20223D01*
X67115Y20222D01*
X68873Y19636D01*
X69980Y18805D01*
X71369Y17763D01*
X71860Y14326D01*
X71257Y13521D01*
X71224Y13465D01*
X71184Y13415D01*
X71137Y13315D01*
X71081Y13220D01*
X71062Y13158D01*
X71034Y13100D01*
X71011Y12993D01*
X70978Y12887D01*
X70974Y12823D01*
X70960Y12760D01*
X70962Y12650D01*
X70954Y12540D01*
X70964Y12476D01*
X70965Y12411D01*
X70992Y12304D01*
X71009Y12195D01*
X71034Y12136D01*
X71049Y12073D01*
X71128Y11905D01*
X71141Y11873D01*
X71147Y11865D01*
X71153Y11851D01*
X72136Y10132D01*
X72183Y10067D01*
X72223Y9997D01*
X72236Y9981D01*
X72236Y6451D01*
X72200Y6399D01*
X72170Y6362D01*
X72162Y6344D01*
X72145Y6319D01*
X72016Y6096D01*
X71986Y6026D01*
X71947Y5961D01*
X71916Y5867D01*
X71877Y5776D01*
X71864Y5701D01*
X71840Y5629D01*
X71832Y5530D01*
X71815Y5433D01*
X71819Y5357D01*
X71812Y5282D01*
X71827Y5184D01*
X71832Y5085D01*
X71853Y5012D01*
X71864Y4937D01*
X71901Y4845D01*
X71928Y4750D01*
X71965Y4684D01*
X71993Y4613D01*
X72049Y4532D01*
X72098Y4445D01*
X72149Y4389D01*
X72192Y4327D01*
X72265Y4261D01*
X72332Y4187D01*
X72394Y4144D01*
X72451Y4094D01*
X72537Y4046D01*
X72619Y3989D01*
X72689Y3962D01*
X72756Y3925D01*
X72851Y3898D01*
X72943Y3862D01*
X73018Y3851D01*
X73091Y3830D01*
X73242Y3818D01*
X73288Y3811D01*
X73307Y3813D01*
X73335Y3811D01*
X74344Y3811D01*
X74371Y3814D01*
X74397Y3812D01*
X74543Y3834D01*
X74691Y3851D01*
X74715Y3859D01*
X74741Y3863D01*
X74879Y3918D01*
X75019Y3968D01*
X75041Y3982D01*
X75065Y3992D01*
X75187Y4077D01*
X75312Y4157D01*
X75330Y4176D01*
X75351Y4191D01*
X75450Y4301D01*
X75554Y4408D01*
X75567Y4430D01*
X75585Y4450D01*
X75656Y4580D01*
X75733Y4707D01*
X75741Y4732D01*
X75753Y4755D01*
X75794Y4898D01*
X75839Y5039D01*
X75841Y5065D01*
X75848Y5090D01*
X75868Y5334D01*
X75868Y18056D01*
X78323Y20511D01*
X84721Y20511D01*
X84773Y20476D01*
X84810Y20446D01*
X84828Y20438D01*
X84852Y20421D01*
X86125Y19686D01*
X86126Y19685D01*
X86127Y19685D01*
X86285Y19617D01*
X86444Y19547D01*
X86446Y19547D01*
X86447Y19547D01*
X86617Y19516D01*
X86787Y19485D01*
X86789Y19485D01*
X86790Y19485D01*
X86961Y19494D01*
X87135Y19502D01*
X87137Y19503D01*
X87138Y19503D01*
X87296Y19548D01*
X87470Y19598D01*
X87472Y19599D01*
X87473Y19599D01*
X87623Y19683D01*
X87775Y19768D01*
X87776Y19769D01*
X87777Y19770D01*
X87963Y19928D01*
X88547Y20511D01*
X94333Y20511D01*
X95100Y19745D01*
X95101Y19744D01*
X95102Y19743D01*
X95244Y19631D01*
X95373Y19528D01*
X95374Y19527D01*
X95375Y19527D01*
X95533Y19452D01*
X95688Y19379D01*
X95689Y19379D01*
X95691Y19378D01*
X95864Y19341D01*
X96029Y19306D01*
X96030Y19306D01*
X96031Y19305D01*
X96214Y19309D01*
X96377Y19312D01*
X96378Y19312D01*
X96380Y19312D01*
X96552Y19356D01*
X96715Y19397D01*
X96716Y19397D01*
X96718Y19398D01*
X96939Y19503D01*
X98686Y20511D01*
X102482Y20511D01*
X105280Y18896D01*
X105418Y18836D01*
X105555Y18772D01*
X105578Y18767D01*
X105599Y18758D01*
X105748Y18731D01*
X105896Y18699D01*
X105919Y18699D01*
X105942Y18695D01*
X106093Y18703D01*
X106244Y18706D01*
X106267Y18711D01*
X106290Y18713D01*
X106436Y18754D01*
X106582Y18791D01*
X106608Y18803D01*
X106625Y18808D01*
X106666Y18831D01*
X106803Y18896D01*
X109443Y20421D01*
X109505Y20466D01*
X109572Y20504D01*
X109581Y20511D01*
X113087Y20511D01*
X113182Y20447D01*
X113275Y20373D01*
X113325Y20349D01*
X113372Y20317D01*
X113576Y20230D01*
X113590Y20224D01*
X113593Y20223D01*
X113597Y20222D01*
X115355Y19636D01*
X116462Y18805D01*
X117851Y17763D01*
X118342Y14326D01*
X117739Y13521D01*
X117706Y13465D01*
X117666Y13415D01*
X117619Y13315D01*
X117563Y13220D01*
X117544Y13158D01*
X117516Y13100D01*
X117493Y12992D01*
X117460Y12887D01*
X117456Y12823D01*
X117442Y12759D01*
X117443Y12649D01*
X117436Y12540D01*
X117446Y12476D01*
X117447Y12411D01*
X117473Y12304D01*
X117491Y12195D01*
X117515Y12136D01*
X117531Y12073D01*
X117610Y11905D01*
X117623Y11873D01*
X117629Y11865D01*
X117635Y11851D01*
X118618Y10132D01*
X118665Y10067D01*
X118705Y9997D01*
X118717Y9982D01*
X118717Y6451D01*
X118682Y6399D01*
X118652Y6362D01*
X118644Y6344D01*
X118627Y6319D01*
X118497Y6096D01*
X118467Y6026D01*
X118429Y5961D01*
X118398Y5867D01*
X118359Y5776D01*
X118345Y5701D01*
X118322Y5629D01*
X118314Y5530D01*
X118297Y5433D01*
X118300Y5357D01*
X118294Y5282D01*
X118309Y5184D01*
X118314Y5085D01*
X118335Y5012D01*
X118346Y4937D01*
X118383Y4845D01*
X118410Y4750D01*
X118447Y4684D01*
X118475Y4613D01*
X118531Y4532D01*
X118580Y4445D01*
X118631Y4389D01*
X118674Y4327D01*
X118747Y4261D01*
X118814Y4187D01*
X118876Y4144D01*
X118932Y4094D01*
X119019Y4046D01*
X119101Y3989D01*
X119171Y3962D01*
X119237Y3925D01*
X119333Y3898D01*
X119425Y3862D01*
X119500Y3851D01*
X119573Y3830D01*
X119724Y3818D01*
X119770Y3811D01*
X119788Y3813D01*
X119817Y3811D01*
X138176Y3811D01*
X138202Y3814D01*
X138228Y3812D01*
X138375Y3834D01*
X138522Y3851D01*
X138547Y3859D01*
X138573Y3863D01*
X138711Y3918D01*
X138850Y3968D01*
X138872Y3982D01*
X138897Y3992D01*
X139018Y4077D01*
X139143Y4157D01*
X139161Y4176D01*
X139183Y4191D01*
X139282Y4301D01*
X139385Y4408D01*
X139399Y4430D01*
X139416Y4450D01*
X139488Y4580D01*
X139564Y4707D01*
X139572Y4732D01*
X139585Y4755D01*
X139625Y4898D01*
X139670Y5039D01*
X139672Y5065D01*
X139680Y5090D01*
X139699Y5334D01*
X139699Y20104D01*
X139695Y20145D01*
X139697Y20186D01*
X139675Y20318D01*
X139669Y20368D01*
X139690Y20553D01*
X139690Y20603D01*
X139699Y20723D01*
X139699Y20896D01*
X139712Y20927D01*
X139759Y21167D01*
X139769Y21261D01*
X139769Y21391D01*
X139776Y21521D01*
X139769Y21565D01*
X139769Y21566D01*
X139773Y21583D01*
X139791Y21628D01*
X139822Y21788D01*
X139824Y21795D01*
X139825Y21801D01*
X139833Y21843D01*
X139865Y21888D01*
X139887Y21939D01*
X139905Y21967D01*
X139920Y22014D01*
X139964Y22112D01*
X140026Y22290D01*
X140055Y22417D01*
X140091Y22542D01*
X140093Y22586D01*
X140093Y22587D01*
X140101Y22603D01*
X140129Y22643D01*
X140217Y22843D01*
X140258Y22880D01*
X140291Y22924D01*
X140315Y22948D01*
X140341Y22990D01*
X140405Y23076D01*
X140505Y23236D01*
X140561Y23353D01*
X140624Y23467D01*
X140636Y23510D01*
X140647Y23524D01*
X140683Y23557D01*
X140815Y23733D01*
X140863Y23759D01*
X140905Y23795D01*
X140933Y23813D01*
X140968Y23849D01*
X141049Y23918D01*
X141182Y24051D01*
X141263Y24153D01*
X141287Y24179D01*
X141316Y24210D01*
X141321Y24218D01*
X141350Y24250D01*
X141371Y24289D01*
X141385Y24301D01*
X141428Y24324D01*
X141595Y24467D01*
X141648Y24482D01*
X141697Y24508D01*
X141728Y24519D01*
X141770Y24546D01*
X141864Y24595D01*
X142024Y24695D01*
X142125Y24777D01*
X142232Y24852D01*
X142261Y24886D01*
X142278Y24894D01*
X142324Y24907D01*
X142519Y25009D01*
X142574Y25012D01*
X142627Y25026D01*
X142661Y25030D01*
X142707Y25047D01*
X142810Y25074D01*
X142988Y25136D01*
X143105Y25193D01*
X143226Y25243D01*
X143262Y25269D01*
X143280Y25273D01*
X143328Y25276D01*
X143540Y25332D01*
X143594Y25323D01*
X143650Y25324D01*
X143683Y25321D01*
X143732Y25327D01*
X143839Y25330D01*
X143932Y25341D01*
X143973Y25350D01*
X144014Y25352D01*
X144142Y25389D01*
X144191Y25401D01*
X144377Y25401D01*
X144427Y25406D01*
X144547Y25410D01*
X144719Y25430D01*
X144752Y25420D01*
X144996Y25401D01*
X147066Y25401D01*
X147092Y25404D01*
X147118Y25402D01*
X147265Y25424D01*
X147412Y25441D01*
X147437Y25449D01*
X147463Y25453D01*
X147601Y25508D01*
X147740Y25558D01*
X147762Y25572D01*
X147787Y25582D01*
X147908Y25667D01*
X148033Y25747D01*
X148051Y25766D01*
X148073Y25781D01*
X148172Y25891D01*
X148275Y25998D01*
X148289Y26020D01*
X148306Y26040D01*
X148378Y26170D01*
X148454Y26297D01*
X148462Y26322D01*
X148475Y26345D01*
X148515Y26488D01*
X148560Y26629D01*
X148562Y26655D01*
X148570Y26680D01*
X148589Y26924D01*
X148589Y28866D01*
X148581Y28942D01*
X148582Y29019D01*
X148561Y29115D01*
X148549Y29213D01*
X148524Y29285D01*
X148507Y29359D01*
X148465Y29448D01*
X148432Y29541D01*
X148390Y29605D01*
X148358Y29674D01*
X148296Y29751D01*
X148243Y29834D01*
X148188Y29887D01*
X148140Y29946D01*
X148063Y30007D01*
X147992Y30076D01*
X147927Y30115D01*
X147867Y30162D01*
X147734Y30230D01*
X147693Y30255D01*
X147675Y30260D01*
X147649Y30274D01*
X147274Y30429D01*
X144729Y32974D01*
X144726Y32981D01*
X144726Y32982D01*
X144725Y32983D01*
X144640Y33135D01*
X144557Y33286D01*
X144556Y33287D01*
X144449Y33405D01*
X144323Y33544D01*
X144322Y33545D01*
X144321Y33545D01*
X144196Y33632D01*
X144036Y33742D01*
X144035Y33743D01*
X143877Y33805D01*
X143712Y33870D01*
X143711Y33870D01*
X143710Y33871D01*
X143547Y33895D01*
X143367Y33921D01*
X143366Y33921D01*
X143365Y33921D01*
X143199Y33907D01*
X143020Y33892D01*
X143019Y33892D01*
X143018Y33892D01*
X142851Y33838D01*
X142688Y33785D01*
X142687Y33785D01*
X142543Y33698D01*
X142389Y33605D01*
X142388Y33605D01*
X142262Y33482D01*
X142139Y33363D01*
X142139Y33362D01*
X142138Y33362D01*
X141999Y33160D01*
X140280Y30182D01*
X136418Y27952D01*
X127028Y27952D01*
X126066Y28351D01*
X126004Y28368D01*
X125945Y28395D01*
X125837Y28416D01*
X125731Y28446D01*
X125666Y28449D01*
X125603Y28462D01*
X125493Y28458D01*
X125383Y28463D01*
X125320Y28452D01*
X125255Y28449D01*
X125148Y28421D01*
X125040Y28401D01*
X124981Y28375D01*
X124919Y28358D01*
X124753Y28276D01*
X124720Y28262D01*
X124712Y28256D01*
X124699Y28250D01*
X124510Y28136D01*
X122711Y27868D01*
X120663Y28380D01*
X120649Y28382D01*
X120635Y28387D01*
X120475Y28405D01*
X120317Y28426D01*
X120303Y28424D01*
X120289Y28426D01*
X120130Y28407D01*
X119970Y28391D01*
X119957Y28387D01*
X119943Y28385D01*
X119710Y28310D01*
X118847Y27952D01*
X110372Y27952D01*
X105930Y30517D01*
X103365Y34960D01*
X103365Y41429D01*
X103362Y41455D01*
X103364Y41481D01*
X103342Y41628D01*
X103325Y41775D01*
X103316Y41800D01*
X103312Y41826D01*
X103257Y41964D01*
X103207Y42103D01*
X103193Y42125D01*
X103183Y42150D01*
X103099Y42271D01*
X103018Y42396D01*
X102999Y42414D01*
X102985Y42436D01*
X102875Y42535D01*
X102768Y42638D01*
X102745Y42652D01*
X102726Y42669D01*
X102596Y42741D01*
X102469Y42817D01*
X102444Y42825D01*
X102421Y42838D01*
X102278Y42878D01*
X102137Y42923D01*
X102111Y42925D01*
X102085Y42933D01*
X102073Y42934D01*
X100347Y43648D01*
X99061Y44935D01*
X98645Y45938D01*
X98597Y46026D01*
X98557Y46118D01*
X98512Y46178D01*
X98476Y46243D01*
X98409Y46317D01*
X98349Y46398D01*
X98292Y46446D01*
X98242Y46501D01*
X98159Y46558D01*
X98083Y46623D01*
X98016Y46657D01*
X97955Y46699D01*
X97862Y46736D01*
X97772Y46782D01*
X97700Y46800D01*
X97631Y46827D01*
X97532Y46842D01*
X97434Y46866D01*
X97360Y46867D01*
X97286Y46878D01*
X97186Y46869D01*
X97086Y46871D01*
X97013Y46855D01*
X96939Y46849D01*
X96843Y46818D01*
X96745Y46796D01*
X96678Y46765D01*
X96607Y46742D01*
X96521Y46690D01*
X96431Y46647D01*
X96372Y46600D01*
X96309Y46562D01*
X96236Y46492D01*
X96158Y46429D01*
X96112Y46371D01*
X96059Y46319D01*
X96004Y46235D01*
X95942Y46156D01*
X95896Y46066D01*
X95870Y46026D01*
X95858Y45992D01*
X95831Y45938D01*
X94876Y43632D01*
X92893Y41649D01*
X90302Y40576D01*
X87498Y40576D01*
X84907Y41649D01*
X82924Y43632D01*
X81851Y46223D01*
X81851Y49027D01*
X81996Y49375D01*
X82037Y49521D01*
X82076Y49644D01*
X82148Y49803D01*
X82421Y50404D01*
X82421Y50405D01*
X82422Y50407D01*
X82428Y50426D01*
X82442Y50453D01*
X82947Y51672D01*
X83005Y51741D01*
X83018Y51765D01*
X83029Y51779D01*
X83049Y51821D01*
X83123Y51955D01*
X83801Y53451D01*
X84192Y54313D01*
X84200Y54339D01*
X84213Y54362D01*
X84253Y54504D01*
X84298Y54645D01*
X84300Y54672D01*
X84308Y54698D01*
X84327Y54942D01*
X84327Y95130D01*
X84313Y95256D01*
X84306Y95382D01*
X84293Y95428D01*
X84287Y95476D01*
X84245Y95595D01*
X84210Y95717D01*
X84186Y95759D01*
X84170Y95805D01*
X84101Y95911D01*
X84040Y96021D01*
X84000Y96067D01*
X83981Y96097D01*
X83946Y96131D01*
X83881Y96207D01*
X83627Y96461D01*
X83607Y96478D01*
X83590Y96498D01*
X83470Y96586D01*
X83354Y96678D01*
X83330Y96689D01*
X83309Y96705D01*
X83173Y96764D01*
X83039Y96827D01*
X83013Y96832D01*
X82989Y96843D01*
X82843Y96869D01*
X82698Y96900D01*
X82672Y96900D01*
X82646Y96904D01*
X82498Y96897D01*
X82350Y96894D01*
X82324Y96888D01*
X82298Y96887D01*
X82156Y96845D01*
X82012Y96809D01*
X81989Y96797D01*
X81963Y96790D01*
X81834Y96718D01*
X81702Y96650D01*
X81682Y96633D01*
X81659Y96620D01*
X81473Y96461D01*
X80463Y95451D01*
X71937Y95451D01*
X70927Y96461D01*
X70907Y96478D01*
X70890Y96498D01*
X70770Y96586D01*
X70654Y96678D01*
X70630Y96689D01*
X70609Y96705D01*
X70473Y96763D01*
X70339Y96827D01*
X70313Y96832D01*
X70289Y96843D01*
X70143Y96869D01*
X69998Y96900D01*
X69972Y96900D01*
X69946Y96904D01*
X69798Y96897D01*
X69650Y96894D01*
X69624Y96888D01*
X69598Y96887D01*
X69456Y96845D01*
X69312Y96809D01*
X69288Y96797D01*
X69263Y96790D01*
X69134Y96718D01*
X69002Y96650D01*
X68982Y96633D01*
X68959Y96620D01*
X68773Y96461D01*
X68372Y96060D01*
X67677Y95659D01*
X66901Y95451D01*
X65023Y95451D01*
X65023Y109500D01*
X65020Y109526D01*
X65022Y109552D01*
X65000Y109699D01*
X64984Y109846D01*
X64975Y109871D01*
X64971Y109897D01*
X64916Y110034D01*
X64866Y110174D01*
X64852Y110196D01*
X64842Y110220D01*
X64758Y110342D01*
X64677Y110467D01*
X64658Y110485D01*
X64643Y110507D01*
X64533Y110606D01*
X64426Y110709D01*
X64404Y110722D01*
X64384Y110740D01*
X64254Y110812D01*
X64127Y110888D01*
X64102Y110896D01*
X64079Y110909D01*
X63936Y110949D01*
X63795Y110994D01*
X63769Y110996D01*
X63744Y111003D01*
X63500Y111023D01*
X63474Y111020D01*
X63448Y111022D01*
X63301Y111000D01*
X63154Y110983D01*
X63129Y110974D01*
X63103Y110970D01*
X62965Y110916D01*
X62826Y110866D01*
X62803Y110851D01*
X62779Y110842D01*
X62658Y110757D01*
X62533Y110677D01*
X62514Y110658D01*
X62493Y110643D01*
X62394Y110533D01*
X62291Y110426D01*
X62277Y110403D01*
X62259Y110384D01*
X62188Y110254D01*
X62112Y110127D01*
X62104Y110102D01*
X62091Y110079D01*
X62051Y109936D01*
X62005Y109795D01*
X62003Y109769D01*
X61996Y109743D01*
X61977Y109500D01*
X61977Y95451D01*
X60099Y95451D01*
X59323Y95659D01*
X58628Y96060D01*
X58227Y96461D01*
X58207Y96478D01*
X58189Y96498D01*
X58070Y96586D01*
X57954Y96678D01*
X57930Y96689D01*
X57909Y96705D01*
X57773Y96763D01*
X57639Y96827D01*
X57613Y96832D01*
X57589Y96843D01*
X57443Y96869D01*
X57298Y96900D01*
X57272Y96900D01*
X57246Y96904D01*
X57098Y96897D01*
X56950Y96894D01*
X56924Y96888D01*
X56898Y96887D01*
X56755Y96845D01*
X56612Y96809D01*
X56588Y96797D01*
X56563Y96790D01*
X56434Y96718D01*
X56302Y96650D01*
X56282Y96633D01*
X56259Y96620D01*
X56073Y96461D01*
X55819Y96207D01*
X55740Y96108D01*
X55656Y96014D01*
X55632Y95972D01*
X55602Y95934D01*
X55548Y95820D01*
X55487Y95709D01*
X55474Y95663D01*
X55453Y95619D01*
X55427Y95496D01*
X55392Y95374D01*
X55387Y95313D01*
X55380Y95278D01*
X55381Y95230D01*
X55373Y95130D01*
X55373Y64466D01*
X55376Y64440D01*
X55374Y64413D01*
X55396Y64267D01*
X55413Y64120D01*
X55422Y64095D01*
X55426Y64068D01*
X55508Y63838D01*
X56577Y61480D01*
X56655Y61350D01*
X56729Y61217D01*
X56747Y61196D01*
X56756Y61181D01*
X56763Y61174D01*
X57258Y59977D01*
X57268Y59960D01*
X57278Y59932D01*
X57626Y59165D01*
X57629Y59133D01*
X57638Y59107D01*
X57640Y59089D01*
X57658Y59046D01*
X57704Y58900D01*
X57849Y58552D01*
X57849Y55748D01*
X56776Y53157D01*
X54793Y51174D01*
X52202Y50101D01*
X49398Y50101D01*
X46807Y51174D01*
X44824Y53157D01*
X43751Y55748D01*
X43751Y58552D01*
X43896Y58900D01*
X43937Y59046D01*
X43976Y59169D01*
X44048Y59328D01*
X44146Y59544D01*
X44322Y59932D01*
X44328Y59951D01*
X44342Y59978D01*
X44847Y61197D01*
X44905Y61266D01*
X44918Y61290D01*
X44929Y61304D01*
X44949Y61346D01*
X45023Y61480D01*
X46092Y63838D01*
X46100Y63864D01*
X46113Y63887D01*
X46153Y64029D01*
X46198Y64170D01*
X46200Y64197D01*
X46208Y64223D01*
X46227Y64467D01*
X46227Y70681D01*
X46216Y70781D01*
X46214Y70882D01*
X46196Y70954D01*
X46187Y71028D01*
X46154Y71122D01*
X46129Y71220D01*
X46095Y71286D01*
X46070Y71356D01*
X46015Y71440D01*
X45969Y71529D01*
X45921Y71586D01*
X45881Y71649D01*
X45809Y71718D01*
X45744Y71795D01*
X45684Y71839D01*
X45630Y71891D01*
X45544Y71942D01*
X45463Y72002D01*
X45395Y72031D01*
X45331Y72070D01*
X45235Y72100D01*
X45143Y72140D01*
X45070Y72153D01*
X44999Y72176D01*
X44899Y72184D01*
X44800Y72202D01*
X44726Y72198D01*
X44652Y72204D01*
X44552Y72189D01*
X44452Y72184D01*
X44381Y72163D01*
X44307Y72152D01*
X44214Y72115D01*
X44117Y72087D01*
X44052Y72051D01*
X43983Y72023D01*
X43901Y71966D01*
X43813Y71917D01*
X43737Y71852D01*
X43697Y71824D01*
X43673Y71798D01*
X43627Y71759D01*
X42093Y70224D01*
X39502Y69151D01*
X36698Y69151D01*
X34107Y70224D01*
X32124Y72207D01*
X31051Y74798D01*
X31051Y77602D01*
X31196Y77950D01*
X31237Y78096D01*
X31276Y78219D01*
X31622Y78982D01*
X31628Y79001D01*
X31642Y79028D01*
X32147Y80247D01*
X32205Y80316D01*
X32218Y80340D01*
X32229Y80354D01*
X32249Y80396D01*
X32323Y80530D01*
X32477Y80869D01*
X33167Y82392D01*
X33167Y82393D01*
X33392Y82888D01*
X33400Y82914D01*
X33413Y82937D01*
X33453Y83079D01*
X33498Y83220D01*
X33500Y83247D01*
X33508Y83273D01*
X33527Y83517D01*
X33527Y89731D01*
X33516Y89831D01*
X33514Y89932D01*
X33496Y90004D01*
X33487Y90078D01*
X33454Y90172D01*
X33429Y90270D01*
X33395Y90336D01*
X33370Y90406D01*
X33315Y90490D01*
X33269Y90579D01*
X33221Y90636D01*
X33181Y90699D01*
X33109Y90768D01*
X33044Y90845D01*
X32984Y90889D01*
X32930Y90941D01*
X32844Y90992D01*
X32763Y91052D01*
X32695Y91081D01*
X32631Y91120D01*
X32535Y91150D01*
X32443Y91190D01*
X32370Y91203D01*
X32299Y91226D01*
X32199Y91234D01*
X32100Y91252D01*
X32026Y91248D01*
X31952Y91254D01*
X31852Y91239D01*
X31752Y91234D01*
X31681Y91213D01*
X31607Y91202D01*
X31514Y91165D01*
X31417Y91137D01*
X31352Y91101D01*
X31283Y91073D01*
X31201Y91016D01*
X31113Y90967D01*
X31037Y90902D01*
X30997Y90874D01*
X30973Y90848D01*
X30927Y90809D01*
X29393Y89274D01*
X26802Y88201D01*
X23998Y88201D01*
X21407Y89274D01*
X19424Y91257D01*
X18351Y93848D01*
X18351Y96652D01*
X18496Y97000D01*
X18537Y97146D01*
X18576Y97269D01*
X18648Y97428D01*
X18738Y97625D01*
X18922Y98032D01*
X18928Y98051D01*
X18942Y98078D01*
X19447Y99297D01*
X19505Y99366D01*
X19518Y99390D01*
X19529Y99404D01*
X19549Y99446D01*
X19623Y99580D01*
X20692Y101938D01*
X20700Y101964D01*
X20713Y101987D01*
X20753Y102129D01*
X20798Y102270D01*
X20800Y102297D01*
X20808Y102323D01*
X20827Y102567D01*
X20827Y119428D01*
X20824Y119454D01*
X20826Y119480D01*
X20804Y119627D01*
X20787Y119774D01*
X20779Y119799D01*
X20775Y119825D01*
X20720Y119963D01*
X20670Y120102D01*
X20656Y120124D01*
X20646Y120149D01*
X20561Y120270D01*
X20481Y120395D01*
X20462Y120413D01*
X20447Y120435D01*
X20337Y120534D01*
X20230Y120637D01*
X20208Y120651D01*
X20188Y120668D01*
X20058Y120740D01*
X19931Y120816D01*
X19906Y120824D01*
X19883Y120837D01*
X19740Y120877D01*
X19599Y120922D01*
X19573Y120924D01*
X19548Y120932D01*
X19304Y120951D01*
X9319Y120951D01*
X9170Y120934D01*
X9020Y120922D01*
X8997Y120914D01*
X8973Y120911D01*
X8832Y120861D01*
X8688Y120815D01*
X8667Y120802D01*
X8645Y120794D01*
X8518Y120712D01*
X8389Y120635D01*
X8372Y120618D01*
X8352Y120605D01*
X8247Y120497D01*
X8139Y120392D01*
X8126Y120372D01*
X8110Y120354D01*
X8032Y120225D01*
X7951Y120099D01*
X7943Y120076D01*
X7931Y120055D01*
X7885Y119912D01*
X7835Y119770D01*
X7832Y119746D01*
X7825Y119723D01*
X7813Y119574D01*
X7796Y119424D01*
X7799Y119400D01*
X7797Y119376D01*
X7819Y119227D01*
X7836Y119078D01*
X7845Y119050D01*
X7848Y119031D01*
X7866Y118987D01*
X7912Y118845D01*
X9049Y116100D01*
X9049Y112500D01*
X7671Y109174D01*
X5126Y106629D01*
X4751Y106474D01*
X4684Y106437D01*
X4613Y106408D01*
X4532Y106352D01*
X4446Y106304D01*
X4390Y106253D01*
X4327Y106209D01*
X4261Y106136D01*
X4188Y106070D01*
X4145Y106007D01*
X4094Y105951D01*
X4046Y105865D01*
X3990Y105784D01*
X3962Y105712D01*
X3925Y105646D01*
X3898Y105551D01*
X3862Y105459D01*
X3851Y105384D01*
X3830Y105310D01*
X3818Y105161D01*
X3811Y105115D01*
X3813Y105095D01*
X3811Y105066D01*
X3811Y98134D01*
X3819Y98058D01*
X3818Y97981D01*
X3839Y97885D01*
X3851Y97787D01*
X3876Y97715D01*
X3893Y97641D01*
X3935Y97552D01*
X3968Y97459D01*
X4010Y97395D01*
X4042Y97326D01*
X4104Y97249D01*
X4157Y97166D01*
X4212Y97113D01*
X4260Y97054D01*
X4337Y96993D01*
X4408Y96924D01*
X4473Y96885D01*
X4533Y96838D01*
X4666Y96770D01*
X4707Y96745D01*
X4725Y96740D01*
X4751Y96726D01*
X5126Y96571D01*
X7671Y94026D01*
X9049Y90700D01*
X9049Y87100D01*
X7671Y83774D01*
X5126Y81229D01*
X4751Y81074D01*
X4684Y81037D01*
X4613Y81008D01*
X4532Y80952D01*
X4446Y80904D01*
X4390Y80853D01*
X4327Y80809D01*
X4261Y80736D01*
X4188Y80670D01*
X4145Y80607D01*
X4094Y80551D01*
X4046Y80465D01*
X3990Y80384D01*
X3962Y80312D01*
X3925Y80246D01*
X3898Y80151D01*
X3862Y80059D01*
X3851Y79984D01*
X3830Y79910D01*
X3818Y79761D01*
X3811Y79715D01*
X3813Y79695D01*
X3811Y79666D01*
X3811Y72734D01*
X3819Y72658D01*
X3818Y72581D01*
X3839Y72485D01*
X3851Y72387D01*
X3876Y72315D01*
X3893Y72241D01*
X3935Y72152D01*
X3968Y72059D01*
X4010Y71995D01*
X4042Y71926D01*
X4104Y71849D01*
X4157Y71766D01*
X4212Y71713D01*
X4260Y71654D01*
X4337Y71593D01*
X4408Y71524D01*
X4473Y71485D01*
X4533Y71438D01*
X4666Y71370D01*
X4707Y71345D01*
X4725Y71340D01*
X4751Y71326D01*
X5126Y71171D01*
X7671Y68626D01*
X9049Y65300D01*
X9049Y61700D01*
X7671Y58374D01*
X5126Y55829D01*
X4751Y55674D01*
X4684Y55637D01*
X4613Y55608D01*
X4532Y55552D01*
X4446Y55504D01*
X4390Y55453D01*
X4327Y55409D01*
X4261Y55336D01*
X4188Y55270D01*
X4145Y55207D01*
X4094Y55151D01*
X4046Y55065D01*
X3990Y54984D01*
X3962Y54912D01*
X3925Y54846D01*
X3898Y54751D01*
X3862Y54659D01*
X3851Y54584D01*
X3830Y54510D01*
X3818Y54361D01*
X3811Y54315D01*
X3813Y54295D01*
X3811Y54266D01*
X3811Y47334D01*
X3819Y47258D01*
X3818Y47181D01*
X3839Y47085D01*
X3851Y46987D01*
X3876Y46915D01*
X3893Y46841D01*
X3935Y46752D01*
X3968Y46659D01*
X4010Y46595D01*
X4042Y46526D01*
X4104Y46449D01*
X4157Y46366D01*
X4212Y46313D01*
X4260Y46254D01*
X4337Y46193D01*
X4408Y46124D01*
X4473Y46085D01*
X4533Y46038D01*
X4666Y45970D01*
X4707Y45945D01*
X4725Y45940D01*
X4751Y45926D01*
X5126Y45771D01*
X7671Y43226D01*
X9049Y39900D01*
X9049Y36300D01*
X7671Y32974D01*
X5126Y30429D01*
X4751Y30274D01*
X4684Y30237D01*
X4613Y30208D01*
X4532Y30152D01*
X4446Y30104D01*
X4390Y30053D01*
X4327Y30009D01*
X4261Y29936D01*
X4188Y29870D01*
X4145Y29807D01*
X4094Y29751D01*
X4046Y29665D01*
X3990Y29584D01*
X3962Y29512D01*
X3925Y29446D01*
X3898Y29351D01*
X3862Y29259D01*
X3851Y29184D01*
X3830Y29110D01*
X3818Y28961D01*
X3811Y28915D01*
X3813Y28895D01*
X3811Y28866D01*
X3811Y21934D01*
X3819Y21858D01*
X3818Y21781D01*
X3839Y21685D01*
X3851Y21587D01*
X3876Y21515D01*
X3893Y21441D01*
X3935Y21352D01*
X3968Y21259D01*
X4010Y21195D01*
X4042Y21126D01*
X4104Y21049D01*
X4157Y20966D01*
X4212Y20913D01*
X4260Y20854D01*
X4337Y20793D01*
X4408Y20724D01*
X4473Y20685D01*
X4533Y20638D01*
X4666Y20570D01*
X4707Y20545D01*
X4725Y20540D01*
X4751Y20526D01*
X5126Y20371D01*
X7671Y17826D01*
X9049Y14500D01*
X9049Y10900D01*
X7671Y7574D01*
X6508Y6411D01*
X6445Y6332D01*
X6376Y6260D01*
X6337Y6196D01*
X6291Y6138D01*
X6248Y6047D01*
X6197Y5961D01*
X6174Y5890D01*
X6142Y5823D01*
X6121Y5725D01*
X6091Y5629D01*
X6085Y5555D01*
X6069Y5482D01*
X6071Y5382D01*
X6063Y5282D01*
X6074Y5208D01*
X6075Y5134D01*
X6099Y5037D01*
X6114Y4937D01*
X6142Y4868D01*
X6160Y4796D01*
X6206Y4707D01*
X6243Y4613D01*
X6286Y4552D01*
X6320Y4486D01*
X6385Y4410D01*
X6442Y4327D01*
X6497Y4277D01*
X6545Y4221D01*
X6626Y4161D01*
X6701Y4094D01*
X6766Y4058D01*
X6826Y4013D01*
X6918Y3974D01*
X7006Y3925D01*
X7077Y3905D01*
X7146Y3875D01*
X7245Y3858D01*
X7341Y3830D01*
X7441Y3822D01*
X7489Y3814D01*
X7524Y3816D01*
X7585Y3811D01*
X32151Y3811D01*
X32174Y3813D01*
G37*
%LPC*%
G36*
X16853Y24777D02*
X16853Y24777D01*
X15172Y25473D01*
X13886Y26760D01*
X13190Y28440D01*
X13190Y50260D01*
X13886Y51940D01*
X15172Y53227D01*
X16853Y53923D01*
X38672Y53923D01*
X40353Y53227D01*
X41639Y51940D01*
X42335Y50260D01*
X42335Y28440D01*
X41639Y26760D01*
X40353Y25473D01*
X38672Y24777D01*
X16853Y24777D01*
G37*
%LPD*%
D10*
X41346Y5906D02*
X41442Y5908D01*
X41537Y5914D01*
X41632Y5924D01*
X41727Y5938D01*
X41821Y5955D01*
X41914Y5977D01*
X42006Y6002D01*
X42097Y6031D01*
X42187Y6064D01*
X42276Y6101D01*
X42362Y6141D01*
X42447Y6185D01*
X42531Y6232D01*
X42612Y6283D01*
X42691Y6337D01*
X42767Y6394D01*
X42842Y6454D01*
X42913Y6518D01*
X42982Y6584D01*
X43048Y6653D01*
X43112Y6724D01*
X43172Y6799D01*
X43229Y6875D01*
X43283Y6954D01*
X43334Y7036D01*
X43381Y7119D01*
X43425Y7204D01*
X43465Y7290D01*
X43502Y7379D01*
X43535Y7469D01*
X43564Y7560D01*
X43589Y7652D01*
X43611Y7745D01*
X43628Y7839D01*
X43642Y7934D01*
X43652Y8029D01*
X43658Y8124D01*
X43660Y8220D01*
X41346Y5905D02*
X41208Y5907D01*
X41070Y5913D01*
X40933Y5922D01*
X40796Y5936D01*
X40659Y5954D01*
X40523Y5975D01*
X40387Y6000D01*
X40252Y6029D01*
X40119Y6062D01*
X39986Y6098D01*
X39854Y6138D01*
X39723Y6182D01*
X39594Y6230D01*
X39466Y6281D01*
X39339Y6336D01*
X39214Y6394D01*
X39091Y6456D01*
X38970Y6521D01*
X38850Y6590D01*
X38733Y6662D01*
X38617Y6738D01*
X38504Y6816D01*
X38393Y6898D01*
X38284Y6983D01*
X38178Y7070D01*
X38074Y7161D01*
X37973Y7255D01*
X37874Y7351D01*
X38164Y14005D02*
X38166Y14098D01*
X38172Y14191D01*
X38181Y14284D01*
X38194Y14376D01*
X38211Y14468D01*
X38231Y14559D01*
X38255Y14649D01*
X38283Y14738D01*
X38314Y14826D01*
X38349Y14912D01*
X38387Y14997D01*
X38429Y15080D01*
X38474Y15162D01*
X38522Y15242D01*
X38574Y15320D01*
X38628Y15395D01*
X38686Y15468D01*
X38746Y15539D01*
X38809Y15608D01*
X38875Y15674D01*
X38944Y15737D01*
X39015Y15797D01*
X39088Y15855D01*
X39163Y15909D01*
X39241Y15961D01*
X39321Y16009D01*
X39403Y16054D01*
X39486Y16096D01*
X39571Y16134D01*
X39657Y16169D01*
X39745Y16200D01*
X39834Y16228D01*
X39924Y16252D01*
X40015Y16272D01*
X40107Y16289D01*
X40199Y16302D01*
X40292Y16311D01*
X40385Y16317D01*
X40478Y16319D01*
X40605Y16317D01*
X40732Y16312D01*
X40858Y16302D01*
X40985Y16289D01*
X41110Y16273D01*
X41236Y16252D01*
X41360Y16228D01*
X41484Y16201D01*
X41607Y16170D01*
X41729Y16135D01*
X41850Y16096D01*
X41970Y16054D01*
X42088Y16009D01*
X42206Y15960D01*
X42321Y15908D01*
X42435Y15852D01*
X42548Y15794D01*
X42658Y15731D01*
X42767Y15666D01*
X42874Y15597D01*
X42979Y15526D01*
X43081Y15451D01*
X39321Y11980D02*
X39241Y12030D01*
X39163Y12082D01*
X39088Y12137D01*
X39014Y12196D01*
X38943Y12257D01*
X38875Y12321D01*
X38809Y12388D01*
X38745Y12458D01*
X38685Y12529D01*
X38628Y12604D01*
X38573Y12680D01*
X38522Y12759D01*
X38474Y12839D01*
X38429Y12921D01*
X38387Y13006D01*
X38349Y13091D01*
X38314Y13178D01*
X38283Y13267D01*
X38255Y13357D01*
X38231Y13447D01*
X38211Y13539D01*
X38194Y13631D01*
X38181Y13724D01*
X38171Y13818D01*
X38166Y13911D01*
X38164Y14005D01*
X42502Y10245D02*
X42582Y10195D01*
X42660Y10143D01*
X42736Y10087D01*
X42809Y10029D01*
X42880Y9968D01*
X42948Y9904D01*
X43014Y9837D01*
X43078Y9767D01*
X43138Y9696D01*
X43195Y9621D01*
X43250Y9545D01*
X43301Y9466D01*
X43349Y9386D01*
X43394Y9304D01*
X43436Y9219D01*
X43474Y9134D01*
X43509Y9047D01*
X43540Y8958D01*
X43568Y8868D01*
X43592Y8778D01*
X43612Y8686D01*
X43629Y8594D01*
X43642Y8501D01*
X43652Y8407D01*
X43657Y8314D01*
X43659Y8220D01*
X42503Y10245D02*
X39321Y11980D01*
X49488Y16320D02*
X49488Y5906D01*
X52959Y10534D02*
X49488Y16320D01*
X52959Y10534D02*
X56430Y16320D01*
X56430Y5906D01*
X65730Y5906D02*
X65826Y5908D01*
X65921Y5914D01*
X66016Y5924D01*
X66111Y5938D01*
X66205Y5955D01*
X66298Y5977D01*
X66390Y6002D01*
X66481Y6031D01*
X66571Y6064D01*
X66660Y6101D01*
X66746Y6141D01*
X66831Y6185D01*
X66915Y6232D01*
X66996Y6283D01*
X67075Y6337D01*
X67151Y6394D01*
X67226Y6454D01*
X67297Y6518D01*
X67366Y6584D01*
X67432Y6653D01*
X67496Y6724D01*
X67556Y6799D01*
X67613Y6875D01*
X67667Y6954D01*
X67718Y7036D01*
X67765Y7119D01*
X67809Y7204D01*
X67849Y7290D01*
X67886Y7379D01*
X67919Y7469D01*
X67948Y7560D01*
X67973Y7652D01*
X67995Y7745D01*
X68012Y7839D01*
X68026Y7934D01*
X68036Y8029D01*
X68042Y8124D01*
X68044Y8220D01*
X65730Y5905D02*
X65592Y5907D01*
X65454Y5913D01*
X65317Y5922D01*
X65180Y5936D01*
X65043Y5954D01*
X64907Y5975D01*
X64771Y6000D01*
X64636Y6029D01*
X64503Y6062D01*
X64370Y6098D01*
X64238Y6138D01*
X64107Y6182D01*
X63978Y6230D01*
X63850Y6281D01*
X63723Y6336D01*
X63598Y6394D01*
X63475Y6456D01*
X63354Y6521D01*
X63234Y6590D01*
X63117Y6662D01*
X63001Y6738D01*
X62888Y6816D01*
X62777Y6898D01*
X62668Y6983D01*
X62562Y7070D01*
X62458Y7161D01*
X62357Y7255D01*
X62258Y7351D01*
X62548Y14005D02*
X62550Y14098D01*
X62556Y14191D01*
X62565Y14284D01*
X62578Y14376D01*
X62595Y14468D01*
X62615Y14559D01*
X62639Y14649D01*
X62667Y14738D01*
X62698Y14826D01*
X62733Y14912D01*
X62771Y14997D01*
X62813Y15080D01*
X62858Y15162D01*
X62906Y15242D01*
X62958Y15320D01*
X63012Y15395D01*
X63070Y15468D01*
X63130Y15539D01*
X63193Y15608D01*
X63259Y15674D01*
X63328Y15737D01*
X63399Y15797D01*
X63472Y15855D01*
X63547Y15909D01*
X63625Y15961D01*
X63705Y16009D01*
X63787Y16054D01*
X63870Y16096D01*
X63955Y16134D01*
X64041Y16169D01*
X64129Y16200D01*
X64218Y16228D01*
X64308Y16252D01*
X64399Y16272D01*
X64491Y16289D01*
X64583Y16302D01*
X64676Y16311D01*
X64769Y16317D01*
X64862Y16319D01*
X64989Y16317D01*
X65116Y16312D01*
X65242Y16302D01*
X65369Y16289D01*
X65494Y16273D01*
X65620Y16252D01*
X65744Y16228D01*
X65868Y16201D01*
X65991Y16170D01*
X66113Y16135D01*
X66234Y16096D01*
X66354Y16054D01*
X66472Y16009D01*
X66590Y15960D01*
X66705Y15908D01*
X66819Y15852D01*
X66932Y15794D01*
X67042Y15731D01*
X67151Y15666D01*
X67258Y15597D01*
X67363Y15526D01*
X67465Y15451D01*
X63705Y11980D02*
X63625Y12030D01*
X63547Y12082D01*
X63472Y12137D01*
X63398Y12196D01*
X63327Y12257D01*
X63259Y12321D01*
X63193Y12388D01*
X63129Y12458D01*
X63069Y12529D01*
X63012Y12604D01*
X62957Y12680D01*
X62906Y12759D01*
X62858Y12839D01*
X62813Y12921D01*
X62771Y13006D01*
X62733Y13091D01*
X62698Y13178D01*
X62667Y13267D01*
X62639Y13357D01*
X62615Y13447D01*
X62595Y13539D01*
X62578Y13631D01*
X62565Y13724D01*
X62555Y13818D01*
X62550Y13911D01*
X62548Y14005D01*
X66886Y10245D02*
X66966Y10195D01*
X67044Y10143D01*
X67120Y10087D01*
X67193Y10029D01*
X67264Y9968D01*
X67332Y9904D01*
X67398Y9837D01*
X67462Y9767D01*
X67522Y9696D01*
X67579Y9621D01*
X67634Y9545D01*
X67685Y9466D01*
X67733Y9386D01*
X67778Y9304D01*
X67820Y9219D01*
X67858Y9134D01*
X67893Y9047D01*
X67924Y8958D01*
X67952Y8868D01*
X67976Y8778D01*
X67996Y8686D01*
X68013Y8594D01*
X68026Y8501D01*
X68036Y8407D01*
X68041Y8314D01*
X68043Y8220D01*
X66887Y10245D02*
X63705Y11980D01*
X80059Y11691D02*
X82952Y11691D01*
X83059Y11689D01*
X83166Y11683D01*
X83272Y11673D01*
X83378Y11659D01*
X83484Y11642D01*
X83588Y11620D01*
X83692Y11595D01*
X83795Y11565D01*
X83897Y11532D01*
X83997Y11496D01*
X84096Y11455D01*
X84193Y11411D01*
X84289Y11363D01*
X84383Y11312D01*
X84475Y11258D01*
X84565Y11200D01*
X84652Y11138D01*
X84738Y11074D01*
X84821Y11007D01*
X84901Y10936D01*
X84979Y10862D01*
X85054Y10786D01*
X85126Y10707D01*
X85195Y10626D01*
X85261Y10541D01*
X85324Y10455D01*
X85383Y10366D01*
X85439Y10275D01*
X85492Y10182D01*
X85542Y10088D01*
X85588Y9991D01*
X85630Y9893D01*
X85668Y9793D01*
X85703Y9692D01*
X85735Y9590D01*
X85762Y9486D01*
X85785Y9382D01*
X85805Y9277D01*
X85821Y9171D01*
X85833Y9065D01*
X85841Y8958D01*
X85845Y8851D01*
X85845Y8745D01*
X85841Y8638D01*
X85833Y8531D01*
X85821Y8425D01*
X85805Y8319D01*
X85785Y8214D01*
X85762Y8110D01*
X85735Y8006D01*
X85703Y7904D01*
X85668Y7803D01*
X85630Y7703D01*
X85588Y7605D01*
X85542Y7508D01*
X85492Y7414D01*
X85439Y7321D01*
X85383Y7230D01*
X85324Y7141D01*
X85261Y7055D01*
X85195Y6970D01*
X85126Y6889D01*
X85054Y6810D01*
X84979Y6734D01*
X84901Y6660D01*
X84821Y6589D01*
X84738Y6522D01*
X84652Y6458D01*
X84565Y6396D01*
X84475Y6338D01*
X84383Y6284D01*
X84289Y6233D01*
X84193Y6185D01*
X84096Y6141D01*
X83997Y6100D01*
X83897Y6064D01*
X83795Y6031D01*
X83692Y6001D01*
X83588Y5976D01*
X83484Y5954D01*
X83378Y5937D01*
X83272Y5923D01*
X83166Y5913D01*
X83059Y5907D01*
X82952Y5905D01*
X82952Y5906D02*
X80059Y5906D01*
X80059Y16320D01*
X82952Y16320D01*
X82952Y16319D02*
X83046Y16317D01*
X83141Y16311D01*
X83235Y16302D01*
X83328Y16288D01*
X83421Y16271D01*
X83513Y16250D01*
X83604Y16225D01*
X83694Y16197D01*
X83783Y16165D01*
X83870Y16129D01*
X83956Y16090D01*
X84040Y16047D01*
X84123Y16001D01*
X84203Y15952D01*
X84281Y15899D01*
X84358Y15843D01*
X84431Y15784D01*
X84503Y15723D01*
X84571Y15658D01*
X84638Y15590D01*
X84701Y15520D01*
X84761Y15448D01*
X84819Y15373D01*
X84873Y15295D01*
X84924Y15216D01*
X84972Y15135D01*
X85016Y15051D01*
X85057Y14966D01*
X85094Y14880D01*
X85128Y14792D01*
X85159Y14702D01*
X85185Y14612D01*
X85208Y14520D01*
X85227Y14427D01*
X85242Y14334D01*
X85254Y14241D01*
X85262Y14147D01*
X85266Y14052D01*
X85266Y13958D01*
X85262Y13863D01*
X85254Y13769D01*
X85242Y13676D01*
X85227Y13583D01*
X85208Y13490D01*
X85185Y13398D01*
X85159Y13308D01*
X85128Y13218D01*
X85094Y13130D01*
X85057Y13044D01*
X85016Y12959D01*
X84972Y12875D01*
X84924Y12794D01*
X84873Y12715D01*
X84819Y12637D01*
X84761Y12562D01*
X84701Y12490D01*
X84638Y12420D01*
X84571Y12352D01*
X84503Y12287D01*
X84431Y12226D01*
X84358Y12167D01*
X84281Y12111D01*
X84203Y12058D01*
X84123Y12009D01*
X84040Y11963D01*
X83956Y11920D01*
X83870Y11881D01*
X83783Y11845D01*
X83694Y11813D01*
X83604Y11785D01*
X83513Y11760D01*
X83421Y11739D01*
X83328Y11722D01*
X83235Y11708D01*
X83141Y11699D01*
X83046Y11693D01*
X82952Y11691D01*
X91440Y16320D02*
X91440Y5906D01*
X90283Y5906D02*
X92597Y5906D01*
X92597Y16320D02*
X90283Y16320D01*
X97691Y13427D02*
X97691Y8798D01*
X97691Y13427D02*
X97693Y13534D01*
X97699Y13641D01*
X97709Y13747D01*
X97723Y13853D01*
X97740Y13959D01*
X97762Y14063D01*
X97787Y14167D01*
X97817Y14270D01*
X97850Y14372D01*
X97886Y14472D01*
X97927Y14571D01*
X97971Y14668D01*
X98019Y14764D01*
X98070Y14858D01*
X98124Y14950D01*
X98182Y15040D01*
X98244Y15127D01*
X98308Y15213D01*
X98375Y15296D01*
X98446Y15376D01*
X98520Y15454D01*
X98596Y15529D01*
X98675Y15601D01*
X98756Y15670D01*
X98841Y15736D01*
X98927Y15799D01*
X99016Y15858D01*
X99107Y15914D01*
X99200Y15967D01*
X99294Y16017D01*
X99391Y16063D01*
X99489Y16105D01*
X99589Y16143D01*
X99690Y16178D01*
X99792Y16210D01*
X99896Y16237D01*
X100000Y16260D01*
X100105Y16280D01*
X100211Y16296D01*
X100317Y16308D01*
X100424Y16316D01*
X100531Y16320D01*
X100637Y16320D01*
X100744Y16316D01*
X100851Y16308D01*
X100957Y16296D01*
X101063Y16280D01*
X101168Y16260D01*
X101272Y16237D01*
X101376Y16210D01*
X101478Y16178D01*
X101579Y16143D01*
X101679Y16105D01*
X101777Y16063D01*
X101874Y16017D01*
X101968Y15967D01*
X102061Y15914D01*
X102152Y15858D01*
X102241Y15799D01*
X102327Y15736D01*
X102412Y15670D01*
X102493Y15601D01*
X102572Y15529D01*
X102648Y15454D01*
X102722Y15376D01*
X102793Y15296D01*
X102860Y15213D01*
X102924Y15127D01*
X102986Y15040D01*
X103044Y14950D01*
X103098Y14858D01*
X103149Y14764D01*
X103197Y14668D01*
X103241Y14571D01*
X103282Y14472D01*
X103318Y14372D01*
X103351Y14270D01*
X103381Y14167D01*
X103406Y14063D01*
X103428Y13959D01*
X103445Y13853D01*
X103459Y13747D01*
X103469Y13641D01*
X103475Y13534D01*
X103477Y13427D01*
X103477Y8798D01*
X103475Y8691D01*
X103469Y8584D01*
X103459Y8478D01*
X103445Y8372D01*
X103428Y8266D01*
X103406Y8162D01*
X103381Y8058D01*
X103351Y7955D01*
X103318Y7853D01*
X103282Y7753D01*
X103241Y7654D01*
X103197Y7557D01*
X103149Y7461D01*
X103098Y7367D01*
X103044Y7275D01*
X102986Y7185D01*
X102924Y7098D01*
X102860Y7012D01*
X102793Y6929D01*
X102722Y6849D01*
X102648Y6771D01*
X102572Y6696D01*
X102493Y6624D01*
X102412Y6555D01*
X102327Y6489D01*
X102241Y6426D01*
X102152Y6367D01*
X102061Y6311D01*
X101968Y6258D01*
X101874Y6208D01*
X101777Y6162D01*
X101679Y6120D01*
X101579Y6082D01*
X101478Y6047D01*
X101376Y6015D01*
X101272Y5988D01*
X101168Y5965D01*
X101063Y5945D01*
X100957Y5929D01*
X100851Y5917D01*
X100744Y5909D01*
X100637Y5905D01*
X100531Y5905D01*
X100424Y5909D01*
X100317Y5917D01*
X100211Y5929D01*
X100105Y5945D01*
X100000Y5965D01*
X99896Y5988D01*
X99792Y6015D01*
X99690Y6047D01*
X99589Y6082D01*
X99489Y6120D01*
X99391Y6162D01*
X99294Y6208D01*
X99200Y6258D01*
X99107Y6311D01*
X99016Y6367D01*
X98927Y6426D01*
X98841Y6489D01*
X98756Y6555D01*
X98675Y6624D01*
X98596Y6696D01*
X98520Y6771D01*
X98446Y6849D01*
X98375Y6929D01*
X98308Y7012D01*
X98244Y7098D01*
X98182Y7185D01*
X98124Y7275D01*
X98070Y7367D01*
X98019Y7461D01*
X97971Y7557D01*
X97927Y7654D01*
X97886Y7753D01*
X97850Y7853D01*
X97817Y7955D01*
X97787Y8058D01*
X97762Y8162D01*
X97740Y8266D01*
X97723Y8372D01*
X97709Y8478D01*
X97699Y8584D01*
X97693Y8691D01*
X97691Y8798D01*
X112211Y5906D02*
X112307Y5908D01*
X112402Y5914D01*
X112497Y5924D01*
X112592Y5938D01*
X112686Y5955D01*
X112779Y5977D01*
X112871Y6002D01*
X112962Y6031D01*
X113052Y6064D01*
X113141Y6101D01*
X113227Y6141D01*
X113312Y6185D01*
X113396Y6232D01*
X113477Y6283D01*
X113556Y6337D01*
X113632Y6394D01*
X113707Y6454D01*
X113778Y6518D01*
X113847Y6584D01*
X113913Y6653D01*
X113977Y6724D01*
X114037Y6799D01*
X114094Y6875D01*
X114148Y6954D01*
X114199Y7036D01*
X114246Y7119D01*
X114290Y7204D01*
X114330Y7290D01*
X114367Y7379D01*
X114400Y7469D01*
X114429Y7560D01*
X114454Y7652D01*
X114476Y7745D01*
X114493Y7839D01*
X114507Y7934D01*
X114517Y8029D01*
X114523Y8124D01*
X114525Y8220D01*
X112211Y5905D02*
X112073Y5907D01*
X111935Y5913D01*
X111798Y5922D01*
X111661Y5936D01*
X111524Y5954D01*
X111388Y5975D01*
X111252Y6000D01*
X111117Y6029D01*
X110984Y6062D01*
X110851Y6098D01*
X110719Y6138D01*
X110588Y6182D01*
X110459Y6230D01*
X110331Y6281D01*
X110204Y6336D01*
X110079Y6394D01*
X109956Y6456D01*
X109835Y6521D01*
X109715Y6590D01*
X109598Y6662D01*
X109482Y6738D01*
X109369Y6816D01*
X109258Y6898D01*
X109149Y6983D01*
X109043Y7070D01*
X108939Y7161D01*
X108838Y7255D01*
X108739Y7351D01*
X109030Y14005D02*
X109032Y14098D01*
X109038Y14191D01*
X109047Y14284D01*
X109060Y14376D01*
X109077Y14468D01*
X109097Y14559D01*
X109121Y14649D01*
X109149Y14738D01*
X109180Y14826D01*
X109215Y14912D01*
X109253Y14997D01*
X109295Y15080D01*
X109340Y15162D01*
X109388Y15242D01*
X109440Y15320D01*
X109494Y15395D01*
X109552Y15468D01*
X109612Y15539D01*
X109675Y15608D01*
X109741Y15674D01*
X109810Y15737D01*
X109881Y15797D01*
X109954Y15855D01*
X110029Y15909D01*
X110107Y15961D01*
X110187Y16009D01*
X110269Y16054D01*
X110352Y16096D01*
X110437Y16134D01*
X110523Y16169D01*
X110611Y16200D01*
X110700Y16228D01*
X110790Y16252D01*
X110881Y16272D01*
X110973Y16289D01*
X111065Y16302D01*
X111158Y16311D01*
X111251Y16317D01*
X111344Y16319D01*
X111471Y16317D01*
X111598Y16312D01*
X111724Y16302D01*
X111851Y16289D01*
X111976Y16273D01*
X112102Y16252D01*
X112226Y16228D01*
X112350Y16201D01*
X112473Y16170D01*
X112595Y16135D01*
X112716Y16096D01*
X112836Y16054D01*
X112954Y16009D01*
X113072Y15960D01*
X113187Y15908D01*
X113301Y15852D01*
X113414Y15794D01*
X113524Y15731D01*
X113633Y15666D01*
X113740Y15597D01*
X113845Y15526D01*
X113947Y15451D01*
X110187Y11980D02*
X110107Y12030D01*
X110029Y12082D01*
X109954Y12137D01*
X109880Y12196D01*
X109809Y12257D01*
X109741Y12321D01*
X109675Y12388D01*
X109611Y12458D01*
X109551Y12529D01*
X109494Y12604D01*
X109439Y12680D01*
X109388Y12759D01*
X109340Y12839D01*
X109295Y12921D01*
X109253Y13006D01*
X109215Y13091D01*
X109180Y13178D01*
X109149Y13267D01*
X109121Y13357D01*
X109097Y13447D01*
X109077Y13539D01*
X109060Y13631D01*
X109047Y13724D01*
X109037Y13818D01*
X109032Y13911D01*
X109030Y14005D01*
X113368Y10245D02*
X113448Y10195D01*
X113526Y10143D01*
X113602Y10087D01*
X113675Y10029D01*
X113746Y9968D01*
X113814Y9904D01*
X113880Y9837D01*
X113944Y9767D01*
X114004Y9696D01*
X114061Y9621D01*
X114116Y9545D01*
X114167Y9466D01*
X114215Y9386D01*
X114260Y9304D01*
X114302Y9219D01*
X114340Y9134D01*
X114375Y9047D01*
X114406Y8958D01*
X114434Y8868D01*
X114458Y8778D01*
X114478Y8686D01*
X114495Y8594D01*
X114508Y8501D01*
X114518Y8407D01*
X114523Y8314D01*
X114525Y8220D01*
X113369Y10245D02*
X110187Y11980D01*
D11*
X76200Y246100D03*
X63500Y246100D03*
X50800Y246100D03*
X38100Y246100D03*
D12*
X20600Y228600D03*
X20600Y215900D03*
X20600Y203200D03*
X20600Y190500D03*
X20600Y177800D03*
X20600Y165100D03*
X20600Y152400D03*
X20600Y139700D03*
X20600Y127000D03*
D11*
X38100Y109500D03*
X50800Y109500D03*
X63500Y109500D03*
X76200Y109500D03*
X88900Y109500D03*
X101600Y109500D03*
X114300Y109500D03*
D12*
X131800Y127000D03*
X131800Y139700D03*
X131800Y152400D03*
X131800Y165100D03*
X131800Y177800D03*
X131800Y190500D03*
X131800Y203200D03*
X131800Y215900D03*
X131800Y228600D03*
D11*
X114300Y246100D03*
X101600Y246100D03*
X88900Y246100D03*
D13*
X15875Y279400D03*
X15875Y304800D03*
D14*
X88900Y314325D02*
X88900Y246100D01*
X88900Y314325D02*
X76200Y327025D01*
D15*
X76200Y327025D03*
D16*
X0Y342900D03*
D17*
X112713Y177800D02*
X131800Y177800D01*
X112713Y177800D02*
X104775Y185738D01*
D15*
X104775Y185738D03*
D16*
X0Y190500D03*
D17*
X107092Y186610D02*
X109018Y181495D01*
X107092Y186610D02*
X104775Y185738D01*
X103903Y183420D02*
X109018Y181495D01*
X103903Y183420D02*
X104775Y185738D01*
X95250Y152400D02*
X131800Y152400D01*
X95250Y152400D02*
X82550Y165100D01*
X82550Y204788D01*
D15*
X82550Y204788D03*
X139700Y254000D03*
D17*
X139700Y284163D01*
X84138Y339725D01*
X50800Y339725D01*
X15875Y304800D01*
X84805Y203766D02*
X82550Y198787D01*
X84805Y203766D02*
X82550Y204788D01*
X80295Y203766D02*
X82550Y198787D01*
X80295Y203766D02*
X82550Y204788D01*
X137445Y255022D02*
X139700Y260000D01*
X137445Y255022D02*
X139700Y254000D01*
X141955Y255022D02*
X139700Y260000D01*
X141955Y255022D02*
X139700Y254000D01*
X34925Y152400D02*
X50800Y136525D01*
X34925Y152400D02*
X20600Y152400D01*
D15*
X50800Y136525D03*
D16*
X152400Y114300D03*
D17*
X48483Y135653D02*
X46557Y140768D01*
X48483Y135653D02*
X50800Y136525D01*
X51672Y138842D02*
X46557Y140768D01*
X51672Y138842D02*
X50800Y136525D01*
X53938Y146050D02*
X60325Y146050D01*
X53938Y146050D02*
X34888Y165100D01*
X20600Y165100D01*
D15*
X60325Y146050D03*
D16*
X152400Y139700D03*
D17*
X59303Y143795D02*
X54325Y146050D01*
X59303Y143795D02*
X60325Y146050D01*
X59303Y148305D02*
X54325Y146050D01*
X59303Y148305D02*
X60325Y146050D01*
X53975Y158750D02*
X34925Y177800D01*
X20600Y177800D01*
D15*
X53975Y158750D03*
D16*
X152400Y165100D03*
D17*
X51658Y157878D02*
X49732Y162993D01*
X51658Y157878D02*
X53975Y158750D01*
X54847Y161067D02*
X49732Y162993D01*
X54847Y161067D02*
X53975Y158750D01*
X53975Y171450D02*
X34925Y190500D01*
X20600Y190500D01*
D15*
X53975Y171450D03*
D16*
X152400Y190500D03*
D17*
X51658Y170578D02*
X49732Y175693D01*
X51658Y170578D02*
X53975Y171450D01*
X54847Y173767D02*
X49732Y175693D01*
X54847Y173767D02*
X53975Y171450D01*
X95250Y207963D02*
X88900Y214313D01*
X65088Y214313D01*
X53975Y203200D01*
X20600Y203200D01*
D15*
X95250Y207963D03*
D16*
X152400Y215900D03*
D17*
X92933Y207090D02*
X91007Y212205D01*
X92933Y207090D02*
X95250Y207963D01*
X96122Y210280D02*
X91007Y212205D01*
X96122Y210280D02*
X95250Y207963D01*
X104775Y215900D02*
X100013Y220663D01*
X60325Y220663D01*
X55563Y215900D01*
X20600Y215900D01*
D15*
X104775Y215900D03*
D16*
X152400Y241300D03*
D17*
X100532Y220143D02*
X102458Y215028D01*
X104775Y215900D01*
X105647Y218217D02*
X100532Y220143D01*
X105647Y218217D02*
X104775Y215900D01*
X25400Y228600D02*
X20600Y228600D01*
X25400Y228600D02*
X25400Y257175D01*
D15*
X25400Y257175D03*
D16*
X152400Y266700D03*
D17*
X27655Y256153D02*
X25400Y251175D01*
X27655Y256153D02*
X25400Y257175D01*
X23145Y256153D02*
X25400Y251175D01*
X23145Y256153D02*
X25400Y257175D01*
X38100Y246100D02*
X38100Y276225D01*
D15*
X38100Y276225D03*
D16*
X152400Y292100D03*
D17*
X40355Y275203D02*
X38100Y270225D01*
X40355Y275203D02*
X38100Y276225D01*
X35845Y275203D02*
X38100Y270225D01*
X35845Y275203D02*
X38100Y276225D01*
X127000Y228600D02*
X131800Y228600D01*
X127000Y228600D02*
X127000Y266700D01*
D15*
X127000Y266700D03*
D16*
X0Y266700D03*
D17*
X127000Y260700D02*
X129255Y265678D01*
X127000Y266700D01*
X124745Y265678D02*
X127000Y260700D01*
X124745Y265678D02*
X127000Y266700D01*
X131800Y215900D02*
X117513Y215900D01*
X106381Y227031D01*
X52406Y227031D01*
X50800Y225425D01*
D15*
X50800Y225425D03*
D16*
X0Y241300D03*
D17*
X51181Y227872D02*
X56581Y227031D01*
X51181Y227872D02*
X50800Y225425D01*
X52388Y223526D02*
X56581Y227031D01*
X52388Y223526D02*
X50800Y225425D01*
X106363Y165100D02*
X131800Y165100D01*
X106363Y165100D02*
X95250Y176213D01*
D15*
X95250Y176213D03*
D16*
X0Y165100D03*
D17*
X97567Y177085D02*
X99493Y171970D01*
X97567Y177085D02*
X95250Y176213D01*
X94378Y173895D02*
X99493Y171970D01*
X94378Y173895D02*
X95250Y176213D01*
X103188Y203200D02*
X131800Y203200D01*
X103188Y203200D02*
X95250Y195263D01*
D15*
X95250Y195263D03*
D16*
X0Y215900D03*
D17*
X94378Y197580D02*
X99493Y199505D01*
X94378Y197580D02*
X95250Y195263D01*
X97567Y194390D02*
X99493Y199505D01*
X97567Y194390D02*
X95250Y195263D01*
X50800Y246100D02*
X50800Y295275D01*
D15*
X50800Y295275D03*
D16*
X152400Y317500D03*
D17*
X53055Y294253D02*
X50800Y289275D01*
X53055Y294253D02*
X50800Y295275D01*
X48545Y294253D02*
X50800Y289275D01*
X48545Y294253D02*
X50800Y295275D01*
X114300Y285750D02*
X114300Y246100D01*
D15*
X114300Y285750D03*
D16*
X0Y292500D03*
D17*
X114300Y279750D02*
X116555Y284728D01*
X114300Y285750D01*
X112045Y284728D02*
X114300Y279750D01*
X112045Y284728D02*
X114300Y285750D01*
X101600Y304800D02*
X101600Y246100D01*
D15*
X101600Y304800D03*
D16*
X0Y317500D03*
D17*
X101600Y298800D02*
X103855Y303778D01*
X101600Y304800D01*
X99345Y303778D02*
X101600Y298800D01*
X99345Y303778D02*
X101600Y304800D01*
X63500Y314325D02*
X63500Y246100D01*
D15*
X63500Y314325D03*
D16*
X152400Y342900D03*
D17*
X65755Y313303D02*
X63500Y308325D01*
X65755Y313303D02*
X63500Y314325D01*
X61245Y313303D02*
X63500Y308325D01*
X61245Y313303D02*
X63500Y314325D01*
X25400Y127000D02*
X25400Y95250D01*
X25400Y127000D02*
X20600Y127000D01*
D15*
X25400Y95250D03*
D16*
X152400Y88900D03*
D17*
X25400Y101250D02*
X23145Y96272D01*
X25400Y95250D01*
X27655Y96272D02*
X25400Y101250D01*
X27655Y96272D02*
X25400Y95250D01*
X38100Y109500D02*
X38100Y76200D01*
D15*
X38100Y76200D03*
D16*
X152400Y63500D03*
D17*
X38100Y82200D02*
X35845Y77222D01*
X38100Y76200D01*
X40355Y77222D02*
X38100Y82200D01*
X40355Y77222D02*
X38100Y76200D01*
X50800Y57150D02*
X50800Y109500D01*
D15*
X50800Y57150D03*
D16*
X152400Y38100D03*
D17*
X50800Y63150D02*
X48545Y58172D01*
X50800Y57150D01*
X53055Y58172D02*
X50800Y63150D01*
X53055Y58172D02*
X50800Y57150D01*
X88900Y47625D02*
X88900Y109500D01*
D15*
X88900Y47625D03*
D16*
X0Y12700D03*
D17*
X86645Y48647D02*
X88900Y53625D01*
X86645Y48647D02*
X88900Y47625D01*
X91155Y48647D02*
X88900Y53625D01*
X91155Y48647D02*
X88900Y47625D01*
X101600Y66675D02*
X101600Y109500D01*
D15*
X101600Y66675D03*
D16*
X0Y38100D03*
D17*
X99345Y67697D02*
X101600Y72675D01*
X99345Y67697D02*
X101600Y66675D01*
X103855Y67697D02*
X101600Y72675D01*
X103855Y67697D02*
X101600Y66675D01*
X114300Y85725D02*
X114300Y109500D01*
D15*
X114300Y85725D03*
D16*
X0Y63500D03*
D17*
X112045Y86747D02*
X114300Y91725D01*
X112045Y86747D02*
X114300Y85725D01*
X116555Y86747D02*
X114300Y91725D01*
X116555Y86747D02*
X114300Y85725D01*
X127000Y104775D02*
X127000Y127000D01*
X131800Y127000D01*
D15*
X127000Y104775D03*
D16*
X0Y88900D03*
D17*
X124745Y105797D02*
X127000Y110775D01*
X124745Y105797D02*
X127000Y104775D01*
X129255Y105797D02*
X127000Y110775D01*
X129255Y105797D02*
X127000Y104775D01*
X131800Y139700D02*
X107950Y139700D01*
X101600Y133350D01*
D15*
X101600Y133350D03*
D16*
X0Y114300D03*
D17*
X100728Y135667D02*
X105843Y137593D01*
X100728Y135667D02*
X101600Y133350D01*
X103917Y132478D02*
X105843Y137593D01*
X103917Y132478D02*
X101600Y133350D01*
D16*
X0Y139700D03*
D15*
X76200Y133350D03*
D17*
X69850Y160338D02*
X69850Y204788D01*
X69850Y160338D02*
X76200Y153988D01*
X76200Y133350D01*
D15*
X69850Y204788D03*
X12700Y254000D03*
D17*
X15875Y257175D01*
X76200Y139350D02*
X73945Y134372D01*
X76200Y133350D01*
X78455Y134372D02*
X76200Y139350D01*
X78455Y134372D02*
X76200Y133350D01*
X69850Y198787D02*
X72105Y203766D01*
X69850Y204788D01*
X67595Y203766D02*
X69850Y198787D01*
X67595Y203766D02*
X69850Y204788D01*
X15875Y259091D02*
X11327Y256060D01*
X12700Y254000D01*
X15154Y253674D02*
X15875Y259091D01*
X15154Y253674D02*
X12700Y254000D01*
X15875Y257175D02*
X15875Y279400D01*
D18*
X63500Y109500D02*
X63500Y88900D01*
D16*
X152400Y12700D03*
D19*
X133350Y12700D01*
D15*
X133350Y12700D03*
D17*
X132938Y52525D02*
X132948Y52525D01*
X137938Y52525D02*
X137948Y52525D01*
X127938Y52525D02*
X126688Y47525D01*
X127938Y47525D01*
X137938Y47525D01*
X137938Y36275D01*
X137936Y36155D01*
X137930Y36035D01*
X137921Y35915D01*
X137907Y35795D01*
X137890Y35677D01*
X137869Y35558D01*
X137844Y35441D01*
X137815Y35324D01*
X137783Y35208D01*
X137747Y35093D01*
X137707Y34980D01*
X137664Y34868D01*
X137617Y34757D01*
X137567Y34648D01*
X137513Y34540D01*
X137455Y34435D01*
X137395Y34331D01*
X137331Y34229D01*
X137264Y34130D01*
X137193Y34032D01*
X137120Y33937D01*
X137043Y33844D01*
X136964Y33754D01*
X136882Y33666D01*
X136797Y33581D01*
X136709Y33499D01*
X136619Y33420D01*
X136526Y33343D01*
X136431Y33270D01*
X136333Y33199D01*
X136234Y33132D01*
X136132Y33068D01*
X136028Y33008D01*
X135923Y32950D01*
X135815Y32896D01*
X135706Y32846D01*
X135595Y32799D01*
X135483Y32756D01*
X135370Y32716D01*
X135255Y32680D01*
X135139Y32648D01*
X135022Y32619D01*
X134905Y32594D01*
X134786Y32573D01*
X134668Y32556D01*
X134548Y32542D01*
X134428Y32533D01*
X134308Y32527D01*
X134188Y32525D01*
X127938Y32525D01*
X126688Y47525D02*
X127938Y52525D01*
X126688Y47525D02*
X122938Y32525D01*
X122938Y47525D02*
X126688Y47525D01*
X127938Y47525D01*
X117938Y47525D02*
X102938Y47525D01*
X117938Y47525D02*
X117938Y45025D01*
X117936Y44885D01*
X117930Y44745D01*
X117920Y44605D01*
X117907Y44465D01*
X117889Y44326D01*
X117867Y44187D01*
X117842Y44050D01*
X117813Y43912D01*
X117780Y43776D01*
X117743Y43641D01*
X117702Y43507D01*
X117657Y43374D01*
X117609Y43242D01*
X117557Y43112D01*
X117502Y42983D01*
X117443Y42856D01*
X117380Y42730D01*
X117314Y42606D01*
X117245Y42485D01*
X117172Y42365D01*
X117095Y42247D01*
X117016Y42132D01*
X116933Y42018D01*
X116847Y41908D01*
X116758Y41799D01*
X116666Y41693D01*
X116571Y41590D01*
X116474Y41489D01*
X116373Y41392D01*
X116270Y41297D01*
X116164Y41205D01*
X116055Y41116D01*
X115945Y41030D01*
X115831Y40947D01*
X115716Y40868D01*
X115598Y40791D01*
X115478Y40718D01*
X115357Y40649D01*
X115233Y40583D01*
X115107Y40520D01*
X114980Y40461D01*
X114851Y40406D01*
X114721Y40354D01*
X114589Y40306D01*
X114456Y40261D01*
X114322Y40220D01*
X114187Y40183D01*
X114051Y40150D01*
X113913Y40121D01*
X113776Y40096D01*
X113637Y40074D01*
X113498Y40056D01*
X113358Y40043D01*
X113218Y40033D01*
X113078Y40027D01*
X112938Y40025D01*
X107938Y37525D02*
X107938Y52525D01*
X107938Y37525D02*
X107940Y37385D01*
X107946Y37245D01*
X107956Y37105D01*
X107969Y36965D01*
X107987Y36826D01*
X108009Y36687D01*
X108034Y36550D01*
X108063Y36412D01*
X108096Y36276D01*
X108133Y36141D01*
X108174Y36007D01*
X108219Y35874D01*
X108267Y35742D01*
X108319Y35612D01*
X108374Y35483D01*
X108433Y35356D01*
X108496Y35230D01*
X108562Y35106D01*
X108631Y34985D01*
X108704Y34865D01*
X108781Y34747D01*
X108860Y34632D01*
X108943Y34518D01*
X109029Y34408D01*
X109118Y34299D01*
X109210Y34193D01*
X109305Y34090D01*
X109402Y33989D01*
X109503Y33892D01*
X109606Y33797D01*
X109712Y33705D01*
X109821Y33616D01*
X109931Y33530D01*
X110045Y33447D01*
X110160Y33368D01*
X110278Y33291D01*
X110398Y33218D01*
X110519Y33149D01*
X110643Y33083D01*
X110769Y33020D01*
X110896Y32961D01*
X111025Y32906D01*
X111155Y32854D01*
X111287Y32806D01*
X111420Y32761D01*
X111554Y32720D01*
X111689Y32683D01*
X111825Y32650D01*
X111963Y32621D01*
X112100Y32596D01*
X112239Y32574D01*
X112378Y32556D01*
X112518Y32543D01*
X112658Y32533D01*
X112798Y32527D01*
X112938Y32525D01*
X117938Y32525D01*
X27763Y44350D02*
X22763Y44350D01*
X22763Y39350D01*
X27763Y39350D01*
X27763Y34350D01*
X32763Y34350D01*
X32763Y39350D01*
X17763Y49350D02*
X17763Y29350D01*
X37763Y29350D01*
X37763Y49350D01*
X17763Y49350D01*
M02*
