G04 EAGLE Gerber RS-274X export*
G75*
%MOMM*%
%FSLAX34Y34*%
%LPD*%
%INBottom Copper*%
%IPPOS*%
%AMOC8*
5,1,8,0,0,1.08239X$1,22.5*%
G01*
%ADD10C,0.228600*%
%ADD11C,0.800000*%
%ADD12C,0.800000*%
%ADD13C,1.200000*%
%ADD14C,0.304800*%


D10*
X121892Y12700D02*
X121890Y12905D01*
X121882Y13110D01*
X121870Y13314D01*
X121853Y13518D01*
X121831Y13722D01*
X121804Y13925D01*
X121772Y14128D01*
X121736Y14329D01*
X121695Y14530D01*
X121649Y14729D01*
X121598Y14928D01*
X121542Y15125D01*
X121482Y15321D01*
X121417Y15515D01*
X121348Y15708D01*
X121274Y15899D01*
X121195Y16088D01*
X121112Y16275D01*
X121024Y16461D01*
X121024Y16460D02*
X120993Y16546D01*
X120958Y16631D01*
X120919Y16714D01*
X120876Y16795D01*
X120831Y16874D01*
X120782Y16952D01*
X120729Y17027D01*
X120674Y17100D01*
X120615Y17170D01*
X120554Y17238D01*
X120489Y17303D01*
X120422Y17365D01*
X120353Y17425D01*
X120280Y17481D01*
X120206Y17534D01*
X120129Y17584D01*
X120050Y17631D01*
X119970Y17674D01*
X119887Y17714D01*
X119803Y17750D01*
X119717Y17783D01*
X119631Y17812D01*
X119542Y17837D01*
X119453Y17858D01*
X119364Y17876D01*
X119273Y17889D01*
X119182Y17899D01*
X119091Y17905D01*
X118999Y17907D01*
X118907Y17905D01*
X118816Y17899D01*
X118725Y17889D01*
X118634Y17876D01*
X118545Y17858D01*
X118456Y17837D01*
X118367Y17812D01*
X118281Y17783D01*
X118195Y17750D01*
X118111Y17714D01*
X118028Y17674D01*
X117948Y17631D01*
X117869Y17584D01*
X117792Y17534D01*
X117718Y17481D01*
X117645Y17425D01*
X117576Y17365D01*
X117509Y17303D01*
X117444Y17238D01*
X117383Y17170D01*
X117324Y17100D01*
X117269Y17027D01*
X117216Y16952D01*
X117167Y16874D01*
X117122Y16795D01*
X117079Y16714D01*
X117040Y16631D01*
X117005Y16546D01*
X116974Y16460D01*
X116974Y16461D02*
X116886Y16275D01*
X116803Y16088D01*
X116724Y15899D01*
X116650Y15708D01*
X116581Y15515D01*
X116516Y15321D01*
X116456Y15125D01*
X116400Y14928D01*
X116349Y14729D01*
X116303Y14530D01*
X116262Y14329D01*
X116226Y14128D01*
X116194Y13925D01*
X116167Y13722D01*
X116145Y13518D01*
X116128Y13314D01*
X116116Y13110D01*
X116108Y12905D01*
X116106Y12700D01*
X121892Y12700D02*
X121890Y12495D01*
X121882Y12290D01*
X121870Y12086D01*
X121853Y11882D01*
X121831Y11678D01*
X121804Y11475D01*
X121772Y11273D01*
X121736Y11071D01*
X121695Y10870D01*
X121649Y10671D01*
X121598Y10472D01*
X121542Y10275D01*
X121482Y10079D01*
X121417Y9885D01*
X121348Y9692D01*
X121274Y9501D01*
X121195Y9312D01*
X121112Y9125D01*
X121024Y8939D01*
X121024Y8940D02*
X120993Y8854D01*
X120958Y8769D01*
X120919Y8686D01*
X120876Y8605D01*
X120831Y8526D01*
X120782Y8448D01*
X120729Y8373D01*
X120674Y8300D01*
X120615Y8230D01*
X120554Y8162D01*
X120489Y8097D01*
X120422Y8035D01*
X120353Y7975D01*
X120280Y7919D01*
X120206Y7866D01*
X120129Y7816D01*
X120050Y7769D01*
X119970Y7726D01*
X119887Y7686D01*
X119803Y7650D01*
X119717Y7617D01*
X119631Y7588D01*
X119542Y7563D01*
X119453Y7542D01*
X119364Y7524D01*
X119273Y7511D01*
X119182Y7501D01*
X119091Y7495D01*
X118999Y7493D01*
X116974Y8939D02*
X116886Y9125D01*
X116803Y9312D01*
X116724Y9501D01*
X116650Y9692D01*
X116581Y9885D01*
X116516Y10079D01*
X116456Y10275D01*
X116400Y10472D01*
X116349Y10671D01*
X116303Y10870D01*
X116262Y11071D01*
X116226Y11273D01*
X116194Y11475D01*
X116167Y11678D01*
X116145Y11882D01*
X116128Y12086D01*
X116116Y12290D01*
X116108Y12495D01*
X116106Y12700D01*
X116974Y8940D02*
X117005Y8854D01*
X117040Y8769D01*
X117079Y8686D01*
X117122Y8605D01*
X117167Y8526D01*
X117216Y8448D01*
X117269Y8373D01*
X117324Y8300D01*
X117383Y8230D01*
X117444Y8162D01*
X117509Y8097D01*
X117576Y8035D01*
X117645Y7975D01*
X117718Y7919D01*
X117792Y7866D01*
X117869Y7816D01*
X117948Y7769D01*
X118028Y7726D01*
X118111Y7686D01*
X118195Y7650D01*
X118281Y7617D01*
X118367Y7588D01*
X118456Y7563D01*
X118545Y7542D01*
X118634Y7524D01*
X118725Y7511D01*
X118816Y7501D01*
X118907Y7495D01*
X118999Y7493D01*
X121313Y9807D02*
X116685Y15593D01*
X110462Y13279D02*
X106990Y13279D01*
X106990Y13278D02*
X106894Y13276D01*
X106799Y13270D01*
X106704Y13260D01*
X106609Y13246D01*
X106515Y13229D01*
X106422Y13207D01*
X106330Y13182D01*
X106239Y13153D01*
X106149Y13120D01*
X106060Y13083D01*
X105974Y13043D01*
X105889Y12999D01*
X105806Y12952D01*
X105724Y12901D01*
X105645Y12847D01*
X105569Y12790D01*
X105494Y12730D01*
X105423Y12666D01*
X105354Y12600D01*
X105288Y12531D01*
X105224Y12460D01*
X105164Y12385D01*
X105107Y12309D01*
X105053Y12230D01*
X105002Y12149D01*
X104955Y12065D01*
X104911Y11980D01*
X104871Y11894D01*
X104834Y11805D01*
X104801Y11715D01*
X104772Y11624D01*
X104747Y11532D01*
X104725Y11439D01*
X104708Y11345D01*
X104694Y11250D01*
X104684Y11155D01*
X104678Y11060D01*
X104676Y10964D01*
X104676Y10386D01*
X104678Y10279D01*
X104684Y10172D01*
X104694Y10066D01*
X104708Y9960D01*
X104725Y9854D01*
X104747Y9750D01*
X104772Y9646D01*
X104802Y9543D01*
X104835Y9441D01*
X104871Y9341D01*
X104912Y9242D01*
X104956Y9145D01*
X105004Y9049D01*
X105055Y8955D01*
X105109Y8863D01*
X105167Y8773D01*
X105229Y8686D01*
X105293Y8600D01*
X105360Y8517D01*
X105431Y8437D01*
X105505Y8359D01*
X105581Y8284D01*
X105660Y8212D01*
X105741Y8143D01*
X105826Y8077D01*
X105912Y8014D01*
X106001Y7955D01*
X106092Y7899D01*
X106185Y7846D01*
X106279Y7796D01*
X106376Y7750D01*
X106474Y7708D01*
X106574Y7670D01*
X106675Y7635D01*
X106777Y7603D01*
X106881Y7576D01*
X106985Y7553D01*
X107090Y7533D01*
X107196Y7517D01*
X107302Y7505D01*
X107409Y7497D01*
X107516Y7493D01*
X107622Y7493D01*
X107729Y7497D01*
X107836Y7505D01*
X107942Y7517D01*
X108048Y7533D01*
X108153Y7553D01*
X108257Y7576D01*
X108361Y7603D01*
X108463Y7635D01*
X108564Y7670D01*
X108664Y7708D01*
X108762Y7750D01*
X108859Y7796D01*
X108953Y7846D01*
X109046Y7899D01*
X109137Y7955D01*
X109226Y8014D01*
X109312Y8077D01*
X109397Y8143D01*
X109478Y8212D01*
X109557Y8284D01*
X109633Y8359D01*
X109707Y8437D01*
X109778Y8517D01*
X109845Y8600D01*
X109909Y8686D01*
X109971Y8773D01*
X110029Y8863D01*
X110083Y8955D01*
X110134Y9049D01*
X110182Y9145D01*
X110226Y9242D01*
X110267Y9341D01*
X110303Y9441D01*
X110336Y9543D01*
X110366Y9646D01*
X110391Y9750D01*
X110413Y9854D01*
X110430Y9960D01*
X110444Y10066D01*
X110454Y10172D01*
X110460Y10279D01*
X110462Y10386D01*
X110462Y13279D01*
X110461Y13279D02*
X110459Y13414D01*
X110453Y13548D01*
X110443Y13682D01*
X110430Y13816D01*
X110412Y13950D01*
X110391Y14083D01*
X110365Y14215D01*
X110336Y14346D01*
X110303Y14477D01*
X110267Y14606D01*
X110226Y14735D01*
X110182Y14862D01*
X110134Y14988D01*
X110083Y15112D01*
X110027Y15235D01*
X109969Y15356D01*
X109907Y15475D01*
X109841Y15593D01*
X109772Y15709D01*
X109700Y15822D01*
X109624Y15934D01*
X109545Y16043D01*
X109463Y16149D01*
X109378Y16254D01*
X109290Y16356D01*
X109199Y16455D01*
X109105Y16551D01*
X109009Y16645D01*
X108910Y16736D01*
X108808Y16824D01*
X108703Y16909D01*
X108597Y16991D01*
X108488Y17070D01*
X108376Y17146D01*
X108263Y17218D01*
X108147Y17287D01*
X108029Y17353D01*
X107910Y17415D01*
X107789Y17473D01*
X107666Y17529D01*
X107542Y17580D01*
X107416Y17628D01*
X107289Y17672D01*
X107160Y17713D01*
X107031Y17749D01*
X106900Y17782D01*
X106769Y17811D01*
X106637Y17837D01*
X106504Y17858D01*
X106370Y17876D01*
X106236Y17889D01*
X106102Y17899D01*
X105968Y17905D01*
X105833Y17907D01*
X94968Y19064D02*
X99596Y6336D01*
X89888Y12700D02*
X89886Y12905D01*
X89878Y13110D01*
X89866Y13314D01*
X89849Y13518D01*
X89827Y13722D01*
X89800Y13925D01*
X89768Y14128D01*
X89732Y14329D01*
X89691Y14530D01*
X89645Y14729D01*
X89594Y14928D01*
X89538Y15125D01*
X89478Y15321D01*
X89413Y15515D01*
X89344Y15708D01*
X89270Y15899D01*
X89191Y16088D01*
X89108Y16275D01*
X89020Y16461D01*
X89020Y16460D02*
X88989Y16546D01*
X88954Y16631D01*
X88915Y16714D01*
X88872Y16795D01*
X88827Y16874D01*
X88778Y16952D01*
X88725Y17027D01*
X88670Y17100D01*
X88611Y17170D01*
X88550Y17238D01*
X88485Y17303D01*
X88418Y17365D01*
X88349Y17425D01*
X88276Y17481D01*
X88202Y17534D01*
X88125Y17584D01*
X88046Y17631D01*
X87966Y17674D01*
X87883Y17714D01*
X87799Y17750D01*
X87713Y17783D01*
X87627Y17812D01*
X87538Y17837D01*
X87449Y17858D01*
X87360Y17876D01*
X87269Y17889D01*
X87178Y17899D01*
X87087Y17905D01*
X86995Y17907D01*
X86903Y17905D01*
X86812Y17899D01*
X86721Y17889D01*
X86630Y17876D01*
X86541Y17858D01*
X86452Y17837D01*
X86363Y17812D01*
X86277Y17783D01*
X86191Y17750D01*
X86107Y17714D01*
X86024Y17674D01*
X85944Y17631D01*
X85865Y17584D01*
X85788Y17534D01*
X85714Y17481D01*
X85641Y17425D01*
X85572Y17365D01*
X85505Y17303D01*
X85440Y17238D01*
X85379Y17170D01*
X85320Y17100D01*
X85265Y17027D01*
X85212Y16952D01*
X85163Y16874D01*
X85118Y16795D01*
X85075Y16714D01*
X85036Y16631D01*
X85001Y16546D01*
X84970Y16460D01*
X84970Y16461D02*
X84882Y16275D01*
X84799Y16088D01*
X84720Y15899D01*
X84646Y15708D01*
X84577Y15515D01*
X84512Y15321D01*
X84452Y15125D01*
X84396Y14928D01*
X84345Y14729D01*
X84299Y14530D01*
X84258Y14329D01*
X84222Y14128D01*
X84190Y13925D01*
X84163Y13722D01*
X84141Y13518D01*
X84124Y13314D01*
X84112Y13110D01*
X84104Y12905D01*
X84102Y12700D01*
X89888Y12700D02*
X89886Y12495D01*
X89878Y12290D01*
X89866Y12086D01*
X89849Y11882D01*
X89827Y11678D01*
X89800Y11475D01*
X89768Y11273D01*
X89732Y11071D01*
X89691Y10870D01*
X89645Y10671D01*
X89594Y10472D01*
X89538Y10275D01*
X89478Y10079D01*
X89413Y9885D01*
X89344Y9692D01*
X89270Y9501D01*
X89191Y9312D01*
X89108Y9125D01*
X89020Y8939D01*
X89020Y8940D02*
X88989Y8854D01*
X88954Y8769D01*
X88915Y8686D01*
X88872Y8605D01*
X88827Y8526D01*
X88778Y8448D01*
X88725Y8373D01*
X88670Y8300D01*
X88611Y8230D01*
X88550Y8162D01*
X88485Y8097D01*
X88418Y8035D01*
X88349Y7975D01*
X88276Y7919D01*
X88202Y7866D01*
X88125Y7816D01*
X88046Y7769D01*
X87966Y7726D01*
X87883Y7686D01*
X87799Y7650D01*
X87713Y7617D01*
X87627Y7588D01*
X87538Y7563D01*
X87449Y7542D01*
X87360Y7524D01*
X87269Y7511D01*
X87178Y7501D01*
X87087Y7495D01*
X86995Y7493D01*
X84970Y8939D02*
X84882Y9125D01*
X84799Y9312D01*
X84720Y9501D01*
X84646Y9692D01*
X84577Y9885D01*
X84512Y10079D01*
X84452Y10275D01*
X84396Y10472D01*
X84345Y10671D01*
X84299Y10870D01*
X84258Y11071D01*
X84222Y11273D01*
X84190Y11475D01*
X84163Y11678D01*
X84141Y11882D01*
X84124Y12086D01*
X84112Y12290D01*
X84104Y12495D01*
X84102Y12700D01*
X84970Y8940D02*
X85001Y8854D01*
X85036Y8769D01*
X85075Y8686D01*
X85118Y8605D01*
X85163Y8526D01*
X85212Y8448D01*
X85265Y8373D01*
X85320Y8300D01*
X85379Y8230D01*
X85440Y8162D01*
X85505Y8097D01*
X85572Y8035D01*
X85641Y7975D01*
X85714Y7919D01*
X85788Y7866D01*
X85865Y7816D01*
X85944Y7769D01*
X86024Y7726D01*
X86107Y7686D01*
X86191Y7650D01*
X86277Y7617D01*
X86363Y7588D01*
X86452Y7563D01*
X86541Y7542D01*
X86630Y7524D01*
X86721Y7511D01*
X86812Y7501D01*
X86903Y7495D01*
X86995Y7493D01*
X89309Y9807D02*
X84681Y15593D01*
X78458Y7493D02*
X74986Y7493D01*
X74893Y7495D01*
X74800Y7501D01*
X74707Y7510D01*
X74615Y7523D01*
X74523Y7540D01*
X74432Y7560D01*
X74342Y7584D01*
X74253Y7612D01*
X74165Y7643D01*
X74079Y7678D01*
X73994Y7716D01*
X73911Y7758D01*
X73829Y7803D01*
X73749Y7851D01*
X73671Y7903D01*
X73596Y7957D01*
X73523Y8015D01*
X73452Y8075D01*
X73383Y8138D01*
X73317Y8204D01*
X73254Y8273D01*
X73194Y8344D01*
X73136Y8417D01*
X73082Y8492D01*
X73030Y8570D01*
X72982Y8650D01*
X72937Y8732D01*
X72895Y8815D01*
X72857Y8900D01*
X72822Y8986D01*
X72791Y9074D01*
X72763Y9163D01*
X72739Y9253D01*
X72719Y9344D01*
X72702Y9436D01*
X72689Y9528D01*
X72680Y9621D01*
X72674Y9714D01*
X72672Y9807D01*
X72672Y10964D01*
X72674Y11057D01*
X72680Y11150D01*
X72689Y11243D01*
X72702Y11335D01*
X72719Y11427D01*
X72739Y11518D01*
X72763Y11608D01*
X72791Y11697D01*
X72822Y11785D01*
X72857Y11871D01*
X72895Y11956D01*
X72937Y12039D01*
X72982Y12121D01*
X73030Y12201D01*
X73082Y12279D01*
X73136Y12354D01*
X73194Y12427D01*
X73254Y12498D01*
X73317Y12567D01*
X73383Y12633D01*
X73452Y12696D01*
X73523Y12756D01*
X73596Y12814D01*
X73672Y12868D01*
X73749Y12920D01*
X73829Y12968D01*
X73911Y13013D01*
X73994Y13055D01*
X74079Y13093D01*
X74165Y13128D01*
X74253Y13159D01*
X74342Y13187D01*
X74432Y13211D01*
X74523Y13231D01*
X74615Y13248D01*
X74707Y13261D01*
X74800Y13270D01*
X74893Y13276D01*
X74986Y13278D01*
X74986Y13279D02*
X78458Y13279D01*
X78458Y17907D01*
X72672Y17907D01*
X62964Y19064D02*
X67592Y6336D01*
X54702Y17908D02*
X54602Y17906D01*
X54503Y17900D01*
X54403Y17891D01*
X54305Y17877D01*
X54206Y17860D01*
X54109Y17840D01*
X54012Y17815D01*
X53916Y17787D01*
X53822Y17755D01*
X53729Y17719D01*
X53637Y17680D01*
X53547Y17638D01*
X53458Y17592D01*
X53371Y17542D01*
X53287Y17490D01*
X53204Y17434D01*
X53123Y17375D01*
X53045Y17313D01*
X52969Y17248D01*
X52896Y17180D01*
X52826Y17110D01*
X52758Y17037D01*
X52693Y16961D01*
X52631Y16883D01*
X52572Y16802D01*
X52516Y16719D01*
X52464Y16635D01*
X52414Y16548D01*
X52368Y16459D01*
X52326Y16369D01*
X52287Y16277D01*
X52251Y16184D01*
X52219Y16090D01*
X52191Y15994D01*
X52166Y15897D01*
X52146Y15800D01*
X52129Y15701D01*
X52115Y15603D01*
X52106Y15503D01*
X52100Y15404D01*
X52098Y15304D01*
X54702Y17907D02*
X54816Y17905D01*
X54929Y17899D01*
X55042Y17890D01*
X55155Y17876D01*
X55268Y17859D01*
X55379Y17838D01*
X55490Y17813D01*
X55600Y17784D01*
X55709Y17752D01*
X55817Y17716D01*
X55924Y17676D01*
X56029Y17633D01*
X56132Y17586D01*
X56234Y17535D01*
X56334Y17482D01*
X56433Y17424D01*
X56529Y17364D01*
X56623Y17300D01*
X56715Y17233D01*
X56805Y17163D01*
X56892Y17090D01*
X56977Y17015D01*
X57059Y16936D01*
X57138Y16854D01*
X57214Y16770D01*
X57288Y16684D01*
X57359Y16595D01*
X57426Y16503D01*
X57491Y16409D01*
X57552Y16314D01*
X57610Y16216D01*
X57664Y16116D01*
X57715Y16014D01*
X57763Y15911D01*
X57807Y15806D01*
X57847Y15700D01*
X57884Y15593D01*
X52966Y13279D02*
X52893Y13351D01*
X52822Y13426D01*
X52755Y13504D01*
X52690Y13584D01*
X52628Y13666D01*
X52569Y13750D01*
X52514Y13837D01*
X52461Y13926D01*
X52412Y14016D01*
X52366Y14108D01*
X52324Y14202D01*
X52285Y14298D01*
X52250Y14394D01*
X52218Y14492D01*
X52190Y14591D01*
X52166Y14691D01*
X52145Y14792D01*
X52128Y14894D01*
X52115Y14996D01*
X52106Y15098D01*
X52100Y15201D01*
X52098Y15304D01*
X52966Y13279D02*
X57884Y7493D01*
X52098Y7493D01*
X46454Y12700D02*
X46452Y12905D01*
X46444Y13110D01*
X46432Y13314D01*
X46415Y13518D01*
X46393Y13722D01*
X46366Y13925D01*
X46334Y14128D01*
X46298Y14329D01*
X46257Y14530D01*
X46211Y14729D01*
X46160Y14928D01*
X46104Y15125D01*
X46044Y15321D01*
X45979Y15515D01*
X45910Y15708D01*
X45836Y15899D01*
X45757Y16088D01*
X45674Y16275D01*
X45586Y16461D01*
X45586Y16460D02*
X45555Y16546D01*
X45520Y16631D01*
X45481Y16714D01*
X45438Y16795D01*
X45393Y16874D01*
X45344Y16952D01*
X45291Y17027D01*
X45236Y17100D01*
X45177Y17170D01*
X45116Y17238D01*
X45051Y17303D01*
X44984Y17365D01*
X44915Y17425D01*
X44842Y17481D01*
X44768Y17534D01*
X44691Y17584D01*
X44612Y17631D01*
X44532Y17674D01*
X44449Y17714D01*
X44365Y17750D01*
X44279Y17783D01*
X44193Y17812D01*
X44104Y17837D01*
X44015Y17858D01*
X43926Y17876D01*
X43835Y17889D01*
X43744Y17899D01*
X43653Y17905D01*
X43561Y17907D01*
X43469Y17905D01*
X43378Y17899D01*
X43287Y17889D01*
X43196Y17876D01*
X43107Y17858D01*
X43018Y17837D01*
X42929Y17812D01*
X42843Y17783D01*
X42757Y17750D01*
X42673Y17714D01*
X42590Y17674D01*
X42510Y17631D01*
X42431Y17584D01*
X42354Y17534D01*
X42280Y17481D01*
X42207Y17425D01*
X42138Y17365D01*
X42071Y17303D01*
X42006Y17238D01*
X41945Y17170D01*
X41886Y17100D01*
X41831Y17027D01*
X41778Y16952D01*
X41729Y16874D01*
X41684Y16795D01*
X41641Y16714D01*
X41602Y16631D01*
X41567Y16546D01*
X41536Y16460D01*
X41536Y16461D02*
X41448Y16275D01*
X41365Y16088D01*
X41286Y15899D01*
X41212Y15708D01*
X41143Y15515D01*
X41078Y15321D01*
X41018Y15125D01*
X40962Y14928D01*
X40911Y14729D01*
X40865Y14530D01*
X40824Y14329D01*
X40788Y14128D01*
X40756Y13925D01*
X40729Y13722D01*
X40707Y13518D01*
X40690Y13314D01*
X40678Y13110D01*
X40670Y12905D01*
X40668Y12700D01*
X46454Y12700D02*
X46452Y12495D01*
X46444Y12290D01*
X46432Y12086D01*
X46415Y11882D01*
X46393Y11678D01*
X46366Y11475D01*
X46334Y11273D01*
X46298Y11071D01*
X46257Y10870D01*
X46211Y10671D01*
X46160Y10472D01*
X46104Y10275D01*
X46044Y10079D01*
X45979Y9885D01*
X45910Y9692D01*
X45836Y9501D01*
X45757Y9312D01*
X45674Y9125D01*
X45586Y8939D01*
X45586Y8940D02*
X45555Y8854D01*
X45520Y8769D01*
X45481Y8686D01*
X45438Y8605D01*
X45393Y8526D01*
X45344Y8448D01*
X45291Y8373D01*
X45236Y8300D01*
X45177Y8230D01*
X45116Y8162D01*
X45051Y8097D01*
X44984Y8035D01*
X44915Y7975D01*
X44842Y7919D01*
X44768Y7866D01*
X44691Y7816D01*
X44612Y7769D01*
X44532Y7726D01*
X44449Y7686D01*
X44365Y7650D01*
X44279Y7617D01*
X44193Y7588D01*
X44104Y7563D01*
X44015Y7542D01*
X43926Y7524D01*
X43835Y7511D01*
X43744Y7501D01*
X43653Y7495D01*
X43561Y7493D01*
X41536Y8939D02*
X41448Y9125D01*
X41365Y9312D01*
X41286Y9501D01*
X41212Y9692D01*
X41143Y9885D01*
X41078Y10079D01*
X41018Y10275D01*
X40962Y10472D01*
X40911Y10671D01*
X40865Y10870D01*
X40824Y11071D01*
X40788Y11273D01*
X40756Y11475D01*
X40729Y11678D01*
X40707Y11882D01*
X40690Y12086D01*
X40678Y12290D01*
X40670Y12495D01*
X40668Y12700D01*
X41536Y8940D02*
X41567Y8854D01*
X41602Y8769D01*
X41641Y8686D01*
X41684Y8605D01*
X41729Y8526D01*
X41778Y8448D01*
X41831Y8373D01*
X41886Y8300D01*
X41945Y8230D01*
X42006Y8162D01*
X42071Y8097D01*
X42138Y8035D01*
X42207Y7975D01*
X42280Y7919D01*
X42354Y7866D01*
X42431Y7816D01*
X42510Y7769D01*
X42590Y7726D01*
X42673Y7686D01*
X42757Y7650D01*
X42843Y7617D01*
X42929Y7588D01*
X43018Y7563D01*
X43107Y7542D01*
X43196Y7524D01*
X43287Y7511D01*
X43378Y7501D01*
X43469Y7495D01*
X43561Y7493D01*
X45875Y9807D02*
X41247Y15593D01*
X31842Y17908D02*
X31742Y17906D01*
X31643Y17900D01*
X31543Y17891D01*
X31445Y17877D01*
X31346Y17860D01*
X31249Y17840D01*
X31152Y17815D01*
X31056Y17787D01*
X30962Y17755D01*
X30869Y17719D01*
X30777Y17680D01*
X30687Y17638D01*
X30598Y17592D01*
X30511Y17542D01*
X30427Y17490D01*
X30344Y17434D01*
X30263Y17375D01*
X30185Y17313D01*
X30109Y17248D01*
X30036Y17180D01*
X29966Y17110D01*
X29898Y17037D01*
X29833Y16961D01*
X29771Y16883D01*
X29712Y16802D01*
X29656Y16719D01*
X29604Y16635D01*
X29554Y16548D01*
X29508Y16459D01*
X29466Y16369D01*
X29427Y16277D01*
X29391Y16184D01*
X29359Y16090D01*
X29331Y15994D01*
X29306Y15897D01*
X29286Y15800D01*
X29269Y15701D01*
X29255Y15603D01*
X29246Y15503D01*
X29240Y15404D01*
X29238Y15304D01*
X31842Y17907D02*
X31956Y17905D01*
X32069Y17899D01*
X32182Y17890D01*
X32295Y17876D01*
X32408Y17859D01*
X32519Y17838D01*
X32630Y17813D01*
X32740Y17784D01*
X32849Y17752D01*
X32957Y17716D01*
X33064Y17676D01*
X33169Y17633D01*
X33272Y17586D01*
X33374Y17535D01*
X33474Y17482D01*
X33573Y17424D01*
X33669Y17364D01*
X33763Y17300D01*
X33855Y17233D01*
X33945Y17163D01*
X34032Y17090D01*
X34117Y17015D01*
X34199Y16936D01*
X34278Y16854D01*
X34354Y16770D01*
X34428Y16684D01*
X34499Y16595D01*
X34566Y16503D01*
X34631Y16409D01*
X34692Y16314D01*
X34750Y16216D01*
X34804Y16116D01*
X34855Y16014D01*
X34903Y15911D01*
X34947Y15806D01*
X34987Y15700D01*
X35024Y15593D01*
X30106Y13279D02*
X30033Y13351D01*
X29962Y13426D01*
X29895Y13504D01*
X29830Y13584D01*
X29768Y13666D01*
X29709Y13750D01*
X29654Y13837D01*
X29601Y13926D01*
X29552Y14016D01*
X29506Y14108D01*
X29464Y14202D01*
X29425Y14298D01*
X29390Y14394D01*
X29358Y14492D01*
X29330Y14591D01*
X29306Y14691D01*
X29285Y14792D01*
X29268Y14894D01*
X29255Y14996D01*
X29246Y15098D01*
X29240Y15201D01*
X29238Y15304D01*
X30106Y13279D02*
X35024Y7493D01*
X29238Y7493D01*
X23594Y7493D02*
X20701Y7493D01*
X20594Y7495D01*
X20487Y7501D01*
X20381Y7511D01*
X20275Y7525D01*
X20169Y7542D01*
X20065Y7564D01*
X19961Y7589D01*
X19858Y7619D01*
X19756Y7652D01*
X19656Y7688D01*
X19557Y7729D01*
X19460Y7773D01*
X19364Y7821D01*
X19270Y7872D01*
X19178Y7926D01*
X19088Y7984D01*
X19001Y8046D01*
X18915Y8110D01*
X18832Y8177D01*
X18752Y8248D01*
X18674Y8322D01*
X18599Y8398D01*
X18527Y8477D01*
X18458Y8558D01*
X18392Y8643D01*
X18329Y8729D01*
X18270Y8818D01*
X18214Y8909D01*
X18161Y9002D01*
X18111Y9096D01*
X18065Y9193D01*
X18023Y9291D01*
X17985Y9391D01*
X17950Y9492D01*
X17918Y9594D01*
X17891Y9698D01*
X17868Y9802D01*
X17848Y9907D01*
X17832Y10013D01*
X17820Y10119D01*
X17812Y10226D01*
X17808Y10333D01*
X17808Y10439D01*
X17812Y10546D01*
X17820Y10653D01*
X17832Y10759D01*
X17848Y10865D01*
X17868Y10970D01*
X17891Y11074D01*
X17918Y11178D01*
X17950Y11280D01*
X17985Y11381D01*
X18023Y11481D01*
X18065Y11579D01*
X18111Y11676D01*
X18161Y11770D01*
X18214Y11863D01*
X18270Y11954D01*
X18329Y12043D01*
X18392Y12129D01*
X18458Y12214D01*
X18527Y12295D01*
X18599Y12374D01*
X18674Y12450D01*
X18752Y12524D01*
X18832Y12595D01*
X18915Y12662D01*
X19001Y12726D01*
X19088Y12788D01*
X19178Y12846D01*
X19270Y12900D01*
X19364Y12951D01*
X19460Y12999D01*
X19557Y13043D01*
X19656Y13084D01*
X19756Y13120D01*
X19858Y13153D01*
X19961Y13183D01*
X20065Y13208D01*
X20169Y13230D01*
X20275Y13247D01*
X20381Y13261D01*
X20487Y13271D01*
X20594Y13277D01*
X20701Y13279D01*
X20123Y17907D02*
X23594Y17907D01*
X20123Y17907D02*
X20029Y17905D01*
X19934Y17899D01*
X19840Y17890D01*
X19747Y17876D01*
X19654Y17859D01*
X19562Y17838D01*
X19471Y17813D01*
X19381Y17785D01*
X19292Y17753D01*
X19205Y17717D01*
X19119Y17678D01*
X19035Y17635D01*
X18952Y17589D01*
X18872Y17540D01*
X18794Y17487D01*
X18717Y17431D01*
X18644Y17372D01*
X18572Y17311D01*
X18504Y17246D01*
X18437Y17178D01*
X18374Y17108D01*
X18314Y17036D01*
X18256Y16961D01*
X18202Y16883D01*
X18151Y16804D01*
X18103Y16723D01*
X18059Y16639D01*
X18018Y16554D01*
X17981Y16468D01*
X17947Y16380D01*
X17916Y16290D01*
X17890Y16200D01*
X17867Y16108D01*
X17848Y16015D01*
X17833Y15922D01*
X17821Y15829D01*
X17813Y15735D01*
X17809Y15640D01*
X17809Y15546D01*
X17813Y15451D01*
X17821Y15357D01*
X17833Y15264D01*
X17848Y15171D01*
X17867Y15078D01*
X17890Y14986D01*
X17916Y14896D01*
X17947Y14806D01*
X17981Y14718D01*
X18018Y14632D01*
X18059Y14547D01*
X18103Y14463D01*
X18151Y14382D01*
X18202Y14303D01*
X18256Y14225D01*
X18314Y14150D01*
X18374Y14078D01*
X18437Y14008D01*
X18504Y13940D01*
X18572Y13875D01*
X18644Y13814D01*
X18717Y13755D01*
X18794Y13699D01*
X18872Y13646D01*
X18952Y13597D01*
X19035Y13551D01*
X19119Y13508D01*
X19205Y13469D01*
X19292Y13433D01*
X19381Y13401D01*
X19471Y13373D01*
X19562Y13348D01*
X19654Y13327D01*
X19747Y13310D01*
X19840Y13296D01*
X19934Y13287D01*
X20029Y13281D01*
X20123Y13279D01*
X22437Y13279D01*
X83277Y26543D02*
X86748Y36957D01*
X79805Y36957D02*
X83277Y26543D01*
X74739Y34643D02*
X71847Y36957D01*
X71847Y26543D01*
X74739Y26543D02*
X68954Y26543D01*
X64135Y26543D02*
X64135Y27122D01*
X63556Y27122D01*
X63556Y26543D01*
X64135Y26543D01*
X58738Y34643D02*
X55845Y36957D01*
X55845Y26543D01*
X58738Y26543D02*
X52952Y26543D01*
D11*
X76200Y327025D03*
D12*
X60325Y342900D01*
X0Y342900D01*
D13*
X0Y342900D03*
D11*
X104775Y185738D03*
D14*
X63500Y185738D01*
X58738Y190500D01*
X0Y190500D01*
D13*
X0Y190500D03*
D14*
X98775Y185738D02*
X103753Y183482D01*
X104775Y185738D01*
X103753Y187993D02*
X98775Y185738D01*
X103753Y187993D02*
X104775Y185738D01*
X12000Y190500D02*
X1670Y194653D01*
X0Y190500D01*
X1670Y186347D02*
X12000Y190500D01*
X1670Y186347D02*
X0Y190500D01*
D11*
X82550Y204788D03*
D14*
X134938Y249238D02*
X139700Y254000D01*
X134938Y249238D02*
X109538Y249238D01*
X82550Y222250D01*
X82550Y204788D01*
D11*
X139700Y254000D03*
D14*
X82550Y210788D02*
X80295Y205809D01*
X82550Y204788D01*
X84805Y205809D02*
X82550Y210788D01*
X84805Y205809D02*
X82550Y204788D01*
X135457Y249757D02*
X140572Y251683D01*
X139700Y254000D01*
X137383Y254872D02*
X135457Y249757D01*
X137383Y254872D02*
X139700Y254000D01*
D11*
X50800Y136525D03*
D14*
X134938Y114300D02*
X152400Y114300D01*
X134938Y114300D02*
X106363Y142875D01*
X71438Y142875D01*
X65088Y136525D01*
X50800Y136525D01*
D13*
X152400Y114300D03*
D14*
X56800Y136525D02*
X51822Y138780D01*
X50800Y136525D01*
X51822Y134270D02*
X56800Y136525D01*
X51822Y134270D02*
X50800Y136525D01*
X140400Y114300D02*
X150730Y110147D01*
X152400Y114300D01*
X150730Y118453D02*
X140400Y114300D01*
X150730Y118453D02*
X152400Y114300D01*
D11*
X60325Y146050D03*
D14*
X120650Y139700D02*
X152400Y139700D01*
X120650Y139700D02*
X109538Y150813D01*
X65088Y150813D01*
X60325Y146050D01*
D13*
X152400Y139700D03*
D14*
X64568Y150293D02*
X59453Y148367D01*
X60325Y146050D01*
X62642Y145178D02*
X64568Y150293D01*
X62642Y145178D02*
X60325Y146050D01*
X140400Y139700D02*
X150730Y135547D01*
X152400Y139700D01*
X150730Y143853D02*
X140400Y139700D01*
X150730Y143853D02*
X152400Y139700D01*
D11*
X53975Y158750D03*
D14*
X109538Y165100D02*
X152400Y165100D01*
X109538Y165100D02*
X103188Y158750D01*
X53975Y158750D01*
D13*
X152400Y165100D03*
D14*
X59975Y158750D02*
X54997Y161005D01*
X53975Y158750D01*
X54997Y156495D02*
X59975Y158750D01*
X54997Y156495D02*
X53975Y158750D01*
X140400Y165100D02*
X150730Y160947D01*
X152400Y165100D01*
X150730Y169253D02*
X140400Y165100D01*
X150730Y169253D02*
X152400Y165100D01*
D11*
X53975Y171450D03*
D14*
X123825Y190500D02*
X152400Y190500D01*
X123825Y190500D02*
X100013Y166688D01*
X58738Y166688D02*
X53975Y171450D01*
X58738Y166688D02*
X100013Y166688D01*
D13*
X152400Y190500D03*
D14*
X58218Y167207D02*
X56292Y172322D01*
X53975Y171450D01*
X53103Y169133D02*
X58218Y167207D01*
X53103Y169133D02*
X53975Y171450D01*
X140400Y190500D02*
X150730Y186347D01*
X152400Y190500D01*
X150730Y194653D02*
X140400Y190500D01*
X150730Y194653D02*
X152400Y190500D01*
D11*
X95250Y207963D03*
D14*
X100013Y203200D02*
X107950Y203200D01*
X120650Y215900D02*
X152400Y215900D01*
X120650Y215900D02*
X107950Y203200D01*
X100013Y203200D02*
X95250Y207963D01*
D13*
X152400Y215900D03*
D14*
X99493Y203720D02*
X97567Y208835D01*
X95250Y207963D01*
X94378Y205645D02*
X99493Y203720D01*
X94378Y205645D02*
X95250Y207963D01*
X140400Y215900D02*
X150730Y211747D01*
X152400Y215900D01*
X150730Y220053D02*
X140400Y215900D01*
X150730Y220053D02*
X152400Y215900D01*
D11*
X104775Y215900D03*
D14*
X130175Y241300D02*
X152400Y241300D01*
X130175Y241300D02*
X104775Y215900D01*
D13*
X152400Y241300D03*
D14*
X109018Y220143D02*
X103903Y218217D01*
X104775Y215900D01*
X107092Y215028D02*
X109018Y220143D01*
X107092Y215028D02*
X104775Y215900D01*
X140400Y241300D02*
X150730Y237147D01*
X152400Y241300D01*
X150730Y245453D02*
X140400Y241300D01*
X150730Y245453D02*
X152400Y241300D01*
D11*
X25400Y257175D03*
D14*
X130175Y257175D02*
X139700Y266700D01*
X152400Y266700D01*
X130175Y257175D02*
X25400Y257175D01*
D13*
X152400Y266700D03*
D14*
X31400Y257175D02*
X26422Y259430D01*
X25400Y257175D01*
X26422Y254920D02*
X31400Y257175D01*
X26422Y254920D02*
X25400Y257175D01*
X140400Y266700D02*
X150730Y262547D01*
X152400Y266700D01*
X150730Y270853D02*
X140400Y266700D01*
X150730Y270853D02*
X152400Y266700D01*
D11*
X38100Y276225D03*
D14*
X136525Y292100D02*
X152400Y292100D01*
X136525Y292100D02*
X120650Y276225D01*
X38100Y276225D01*
D13*
X152400Y292100D03*
D14*
X44100Y276225D02*
X39122Y278480D01*
X38100Y276225D01*
X39122Y273970D02*
X44100Y276225D01*
X39122Y273970D02*
X38100Y276225D01*
X140400Y292100D02*
X150730Y287947D01*
X152400Y292100D01*
X150730Y296253D02*
X140400Y292100D01*
X150730Y296253D02*
X152400Y292100D01*
D11*
X127000Y266700D03*
D14*
X0Y266700D01*
D13*
X0Y266700D03*
D14*
X121000Y266700D02*
X125978Y264445D01*
X127000Y266700D01*
X125978Y268955D02*
X121000Y266700D01*
X125978Y268955D02*
X127000Y266700D01*
X12000Y266700D02*
X1670Y270853D01*
X0Y266700D01*
X1670Y262547D02*
X12000Y266700D01*
X1670Y262547D02*
X0Y266700D01*
D11*
X50800Y225425D03*
D14*
X34925Y241300D01*
X0Y241300D01*
D13*
X0Y241300D03*
D14*
X46557Y229668D02*
X48483Y224553D01*
X50800Y225425D01*
X51672Y227742D02*
X46557Y229668D01*
X51672Y227742D02*
X50800Y225425D01*
X12000Y241300D02*
X1670Y245453D01*
X0Y241300D01*
X1670Y237147D02*
X12000Y241300D01*
X1670Y237147D02*
X0Y241300D01*
D11*
X95250Y176213D03*
D14*
X63500Y176213D01*
X58738Y180975D01*
X49213Y180975D01*
X33338Y165100D01*
X0Y165100D01*
D13*
X0Y165100D03*
D14*
X89250Y176213D02*
X94228Y173957D01*
X95250Y176213D01*
X94228Y178468D02*
X89250Y176213D01*
X94228Y178468D02*
X95250Y176213D01*
X12000Y165100D02*
X1670Y169253D01*
X0Y165100D01*
X1670Y160947D02*
X12000Y165100D01*
X1670Y160947D02*
X0Y165100D01*
D11*
X95250Y195263D03*
D14*
X65088Y195263D01*
X44450Y215900D01*
X0Y215900D01*
D13*
X0Y215900D03*
D14*
X89250Y195263D02*
X94228Y193007D01*
X95250Y195263D01*
X94228Y197518D02*
X89250Y195263D01*
X94228Y197518D02*
X95250Y195263D01*
X12000Y215900D02*
X1670Y220053D01*
X0Y215900D01*
X1670Y211747D02*
X12000Y215900D01*
X1670Y211747D02*
X0Y215900D01*
D11*
X50800Y295275D03*
D14*
X130175Y317500D02*
X152400Y317500D01*
X130175Y317500D02*
X107950Y295275D01*
X50800Y295275D01*
D13*
X152400Y317500D03*
D14*
X56800Y295275D02*
X51822Y297530D01*
X50800Y295275D01*
X51822Y293020D02*
X56800Y295275D01*
X51822Y293020D02*
X50800Y295275D01*
X140400Y317500D02*
X150730Y313347D01*
X152400Y317500D01*
X150730Y321653D02*
X140400Y317500D01*
X150730Y321653D02*
X152400Y317500D01*
D11*
X114300Y285750D03*
D14*
X43561Y285750D01*
X36811Y292500D01*
X12000Y292500D01*
D13*
X0Y292500D03*
D14*
X12000Y292500D01*
X108300Y285750D02*
X113278Y283495D01*
X114300Y285750D01*
X113278Y288005D02*
X108300Y285750D01*
X113278Y288005D02*
X114300Y285750D01*
X12000Y292500D02*
X1670Y296653D01*
X0Y292500D01*
X1670Y288347D02*
X12000Y292500D01*
X1670Y288347D02*
X0Y292500D01*
D11*
X101600Y304800D03*
D14*
X57150Y304800D01*
X44450Y317500D01*
X0Y317500D01*
D13*
X0Y317500D03*
D14*
X95600Y304800D02*
X100578Y302545D01*
X101600Y304800D01*
X100578Y307055D02*
X95600Y304800D01*
X100578Y307055D02*
X101600Y304800D01*
X12000Y317500D02*
X1670Y321653D01*
X0Y317500D01*
X1670Y313347D02*
X12000Y317500D01*
X1670Y313347D02*
X0Y317500D01*
D11*
X63500Y314325D03*
D14*
X79375Y314325D01*
X107950Y342900D02*
X152400Y342900D01*
X107950Y342900D02*
X79375Y314325D01*
D13*
X152400Y342900D03*
D14*
X69500Y314325D02*
X64522Y316580D01*
X63500Y314325D01*
X64522Y312070D02*
X69500Y314325D01*
X64522Y312070D02*
X63500Y314325D01*
X140400Y342900D02*
X150730Y338747D01*
X152400Y342900D01*
X150730Y347053D02*
X140400Y342900D01*
X150730Y347053D02*
X152400Y342900D01*
D11*
X25400Y95250D03*
D14*
X127000Y88900D02*
X152400Y88900D01*
X127000Y88900D02*
X120650Y95250D01*
X25400Y95250D01*
D13*
X152400Y88900D03*
D14*
X26422Y97505D02*
X25400Y95250D01*
X26422Y97505D02*
X31400Y95250D01*
X26422Y92995D01*
X25400Y95250D01*
X140400Y88900D02*
X150730Y84747D01*
X152400Y88900D01*
X150730Y93053D02*
X140400Y88900D01*
X150730Y93053D02*
X152400Y88900D01*
D11*
X38100Y76200D03*
D14*
X120650Y63500D02*
X152400Y63500D01*
X120650Y63500D02*
X107950Y76200D01*
X38100Y76200D01*
D13*
X152400Y63500D03*
D14*
X44100Y76200D02*
X39122Y78455D01*
X38100Y76200D01*
X39122Y73945D02*
X44100Y76200D01*
X39122Y73945D02*
X38100Y76200D01*
X140400Y63500D02*
X150730Y59347D01*
X152400Y63500D01*
X150730Y67653D02*
X140400Y63500D01*
X150730Y67653D02*
X152400Y63500D01*
D11*
X50800Y57150D03*
D14*
X114300Y38100D02*
X152400Y38100D01*
X114300Y38100D02*
X95250Y57150D01*
X50800Y57150D01*
D13*
X152400Y38100D03*
D14*
X56800Y57150D02*
X51822Y59405D01*
X50800Y57150D01*
X51822Y54895D02*
X56800Y57150D01*
X51822Y54895D02*
X50800Y57150D01*
X140400Y38100D02*
X150730Y33947D01*
X152400Y38100D01*
X150730Y42253D02*
X140400Y38100D01*
X150730Y42253D02*
X152400Y38100D01*
D11*
X88900Y47625D03*
D14*
X34925Y47625D01*
X0Y12700D01*
D13*
X0Y12700D03*
D14*
X82900Y47625D02*
X87878Y45370D01*
X88900Y47625D01*
X87878Y49880D02*
X82900Y47625D01*
X87878Y49880D02*
X88900Y47625D01*
X8485Y21185D02*
X-1756Y16817D01*
X0Y12700D01*
X4117Y10944D02*
X8485Y21185D01*
X4117Y10944D02*
X0Y12700D01*
D11*
X101600Y66675D03*
D14*
X28575Y66675D02*
X0Y38100D01*
X28575Y66675D02*
X101600Y66675D01*
D13*
X0Y38100D03*
D14*
X95600Y66675D02*
X100578Y64420D01*
X101600Y66675D01*
X100578Y68930D02*
X95600Y66675D01*
X8485Y46585D02*
X-1756Y42217D01*
X0Y38100D01*
X4117Y36344D02*
X8485Y46585D01*
X4117Y36344D02*
X0Y38100D01*
D11*
X114300Y85725D03*
D14*
X22225Y85725D01*
X0Y63500D01*
D13*
X0Y63500D03*
D14*
X108300Y85725D02*
X113278Y83470D01*
X114300Y85725D01*
X113278Y87980D02*
X108300Y85725D01*
X113278Y87980D02*
X114300Y85725D01*
X8485Y71985D02*
X-1756Y67617D01*
X0Y63500D01*
X4117Y61744D02*
X8485Y71985D01*
X4117Y61744D02*
X0Y63500D01*
D11*
X127000Y104775D03*
D14*
X15875Y104775D01*
X0Y88900D01*
D13*
X0Y88900D03*
D14*
X125978Y107030D02*
X127000Y104775D01*
X125978Y102520D02*
X121000Y104775D01*
X125978Y102520D02*
X127000Y104775D01*
X125978Y107030D02*
X121000Y104775D01*
X8485Y97385D02*
X-1756Y93017D01*
X0Y88900D01*
X4117Y87144D02*
X8485Y97385D01*
X4117Y87144D02*
X0Y88900D01*
D11*
X101600Y133350D03*
D14*
X82550Y114300D02*
X0Y114300D01*
X82550Y114300D02*
X101600Y133350D01*
D13*
X0Y114300D03*
D14*
X97357Y129107D02*
X102472Y131033D01*
X101600Y133350D01*
X99283Y134222D02*
X97357Y129107D01*
X99283Y134222D02*
X101600Y133350D01*
X12000Y114300D02*
X1670Y118453D01*
X0Y114300D01*
X1670Y110147D02*
X12000Y114300D01*
X1670Y110147D02*
X0Y114300D01*
D13*
X0Y139700D03*
D14*
X33338Y139700D02*
X46038Y127000D01*
X33338Y139700D02*
X0Y139700D01*
X46038Y127000D02*
X69850Y127000D01*
X76200Y133350D01*
D11*
X76200Y133350D03*
X69850Y204788D03*
D14*
X69850Y222250D01*
X44450Y247650D01*
X19050Y247650D01*
X12700Y254000D01*
D11*
X12700Y254000D03*
D14*
X1670Y143853D02*
X12000Y139700D01*
X1670Y143853D02*
X0Y139700D01*
X1670Y135547D02*
X12000Y139700D01*
X1670Y135547D02*
X0Y139700D01*
X71957Y129107D02*
X77072Y131033D01*
X76200Y133350D01*
X73883Y134222D02*
X71957Y129107D01*
X73883Y134222D02*
X76200Y133350D01*
X67595Y205809D02*
X69850Y210788D01*
X67595Y205809D02*
X69850Y204788D01*
X72105Y205809D02*
X69850Y210788D01*
X72105Y205809D02*
X69850Y204788D01*
X16943Y249757D02*
X15017Y254872D01*
X12700Y254000D01*
X11828Y251683D02*
X16943Y249757D01*
X11828Y251683D02*
X12700Y254000D01*
D12*
X133350Y12700D02*
X152400Y12700D01*
D13*
X152400Y12700D03*
D11*
X133350Y12700D03*
M02*
