M48
;GenerationSoftware,Autodesk,EAGLE,9.6.2*%
;CreationDate,2023-06-05T15:47:48Z*%
FMAT,2
ICI,OFF
METRIC,TZ,000.000
T2C0.400
T1C0.800
%
G90
M71
T1
X15240Y11430
X0Y34290
X15240Y21590
X0Y19050
X0Y26670
X15240Y24130
X0Y16510
X15240Y34290
X15240Y26670
X15240Y13970
X0Y24130
X15240Y16510
X15240Y29210
X15240Y19050
X0Y21590
X15240Y31750
X0Y29250
X0Y31750
X15240Y8890
X15240Y6350
X15240Y3810
X0Y1270
X0Y3810
X0Y6350
X0Y8890
X0Y11430
X0Y13970
X15240Y1270
T2
X9525Y17621
X9525Y19526
X7620Y32702
X10478Y18574
X11430Y28575
X8255Y20479
X10160Y30480
X13970Y25400
X6350Y31432
X5080Y29527
X2540Y9525
X5080Y13652
X3810Y7620
X6032Y14605
X5080Y5715
X5398Y15875
X8890Y4763
X5398Y17145
X10160Y6667
X9525Y20796
X11430Y8573
X10478Y21590
X12700Y10478
X2540Y25717
X10160Y13335
X3810Y27622
X12700Y26670
X7620Y13335
X6985Y20479
X1270Y25400
X5080Y22542
X13335Y1270
M30