G04 EAGLE Gerber RS-274X export*
G75*
%MOMM*%
%FSLAX34Y34*%
%LPD*%
%INSilkscreen Bottom*%
%IPPOS*%
%AMOC8*
5,1,8,0,0,1.08239X$1,22.5*%
G01*
%ADD10C,0.101600*%


D10*
X21251Y45382D02*
X12446Y47583D01*
X18316Y49784D01*
X12446Y51986D01*
X21251Y54187D01*
X21251Y59037D02*
X12446Y61238D01*
X18316Y63439D01*
X12446Y65641D01*
X21251Y67842D01*
X21251Y72692D02*
X12446Y74893D01*
X18316Y77094D01*
X12446Y79296D01*
X21251Y81497D01*
X13180Y86115D02*
X12446Y86115D01*
X13180Y86115D02*
X13180Y86849D01*
X12446Y86849D01*
X12446Y86115D01*
X12446Y93870D02*
X12446Y96805D01*
X12446Y93870D02*
X12448Y93779D01*
X12454Y93688D01*
X12463Y93598D01*
X12476Y93508D01*
X12493Y93418D01*
X12513Y93330D01*
X12538Y93242D01*
X12565Y93155D01*
X12597Y93070D01*
X12631Y92986D01*
X12670Y92903D01*
X12711Y92822D01*
X12756Y92743D01*
X12804Y92666D01*
X12856Y92591D01*
X12910Y92518D01*
X12967Y92447D01*
X13028Y92379D01*
X13091Y92314D01*
X13156Y92251D01*
X13224Y92190D01*
X13295Y92133D01*
X13368Y92079D01*
X13443Y92027D01*
X13520Y91979D01*
X13599Y91934D01*
X13680Y91893D01*
X13763Y91854D01*
X13847Y91820D01*
X13932Y91788D01*
X14019Y91761D01*
X14107Y91736D01*
X14195Y91716D01*
X14285Y91699D01*
X14375Y91686D01*
X14465Y91677D01*
X14556Y91671D01*
X14647Y91669D01*
X19050Y91669D01*
X19141Y91671D01*
X19232Y91677D01*
X19322Y91686D01*
X19412Y91699D01*
X19502Y91716D01*
X19590Y91736D01*
X19678Y91761D01*
X19765Y91788D01*
X19850Y91820D01*
X19934Y91854D01*
X20017Y91893D01*
X20098Y91934D01*
X20177Y91979D01*
X20254Y92027D01*
X20329Y92079D01*
X20402Y92133D01*
X20473Y92190D01*
X20541Y92251D01*
X20606Y92314D01*
X20669Y92379D01*
X20730Y92447D01*
X20787Y92518D01*
X20841Y92591D01*
X20893Y92666D01*
X20941Y92743D01*
X20986Y92822D01*
X21027Y92903D01*
X21066Y92986D01*
X21100Y93070D01*
X21132Y93155D01*
X21159Y93242D01*
X21184Y93330D01*
X21204Y93418D01*
X21221Y93508D01*
X21234Y93598D01*
X21243Y93688D01*
X21249Y93779D01*
X21251Y93870D01*
X21251Y96805D01*
X18316Y101469D02*
X15381Y101469D01*
X18316Y101469D02*
X18423Y101471D01*
X18530Y101477D01*
X18637Y101487D01*
X18743Y101500D01*
X18849Y101518D01*
X18954Y101539D01*
X19058Y101564D01*
X19162Y101593D01*
X19264Y101626D01*
X19364Y101663D01*
X19464Y101703D01*
X19562Y101747D01*
X19658Y101794D01*
X19752Y101845D01*
X19845Y101899D01*
X19935Y101956D01*
X20024Y102017D01*
X20110Y102081D01*
X20193Y102148D01*
X20275Y102218D01*
X20353Y102291D01*
X20429Y102367D01*
X20502Y102445D01*
X20572Y102527D01*
X20639Y102610D01*
X20703Y102696D01*
X20764Y102785D01*
X20821Y102875D01*
X20875Y102968D01*
X20926Y103062D01*
X20973Y103158D01*
X21017Y103256D01*
X21057Y103356D01*
X21094Y103456D01*
X21127Y103558D01*
X21156Y103662D01*
X21181Y103766D01*
X21202Y103871D01*
X21220Y103977D01*
X21233Y104083D01*
X21243Y104190D01*
X21249Y104297D01*
X21251Y104404D01*
X21249Y104511D01*
X21243Y104618D01*
X21233Y104725D01*
X21220Y104831D01*
X21202Y104937D01*
X21181Y105042D01*
X21156Y105146D01*
X21127Y105250D01*
X21094Y105352D01*
X21057Y105452D01*
X21017Y105552D01*
X20973Y105650D01*
X20926Y105746D01*
X20875Y105840D01*
X20821Y105933D01*
X20764Y106023D01*
X20703Y106112D01*
X20639Y106198D01*
X20572Y106281D01*
X20502Y106363D01*
X20429Y106441D01*
X20353Y106517D01*
X20275Y106590D01*
X20193Y106660D01*
X20110Y106727D01*
X20024Y106791D01*
X19935Y106852D01*
X19845Y106909D01*
X19752Y106963D01*
X19658Y107014D01*
X19562Y107061D01*
X19464Y107105D01*
X19364Y107145D01*
X19264Y107182D01*
X19162Y107215D01*
X19058Y107244D01*
X18954Y107269D01*
X18849Y107290D01*
X18743Y107308D01*
X18637Y107321D01*
X18530Y107331D01*
X18423Y107337D01*
X18316Y107339D01*
X15381Y107339D01*
X15274Y107337D01*
X15167Y107331D01*
X15060Y107321D01*
X14954Y107308D01*
X14848Y107290D01*
X14743Y107269D01*
X14639Y107244D01*
X14535Y107215D01*
X14433Y107182D01*
X14333Y107145D01*
X14233Y107105D01*
X14135Y107061D01*
X14039Y107014D01*
X13945Y106963D01*
X13852Y106909D01*
X13762Y106852D01*
X13673Y106791D01*
X13587Y106727D01*
X13504Y106660D01*
X13422Y106590D01*
X13344Y106517D01*
X13268Y106441D01*
X13195Y106363D01*
X13125Y106281D01*
X13058Y106198D01*
X12994Y106112D01*
X12933Y106023D01*
X12876Y105933D01*
X12822Y105840D01*
X12771Y105746D01*
X12724Y105650D01*
X12680Y105552D01*
X12640Y105452D01*
X12603Y105352D01*
X12570Y105250D01*
X12541Y105146D01*
X12516Y105042D01*
X12495Y104937D01*
X12477Y104831D01*
X12464Y104725D01*
X12454Y104618D01*
X12448Y104511D01*
X12446Y104404D01*
X12448Y104297D01*
X12454Y104190D01*
X12464Y104083D01*
X12477Y103977D01*
X12495Y103871D01*
X12516Y103766D01*
X12541Y103662D01*
X12570Y103558D01*
X12603Y103456D01*
X12640Y103356D01*
X12680Y103256D01*
X12724Y103158D01*
X12771Y103062D01*
X12822Y102968D01*
X12876Y102875D01*
X12933Y102785D01*
X12994Y102696D01*
X13058Y102610D01*
X13125Y102527D01*
X13195Y102445D01*
X13268Y102367D01*
X13344Y102291D01*
X13422Y102218D01*
X13504Y102148D01*
X13587Y102081D01*
X13673Y102017D01*
X13762Y101956D01*
X13852Y101899D01*
X13945Y101845D01*
X14039Y101794D01*
X14135Y101747D01*
X14233Y101703D01*
X14333Y101663D01*
X14433Y101626D01*
X14535Y101593D01*
X14639Y101564D01*
X14743Y101539D01*
X14848Y101518D01*
X14954Y101500D01*
X15060Y101487D01*
X15167Y101477D01*
X15274Y101471D01*
X15381Y101469D01*
X12446Y112991D02*
X21251Y112991D01*
X21251Y116659D01*
X21249Y116750D01*
X21243Y116841D01*
X21234Y116931D01*
X21221Y117021D01*
X21204Y117111D01*
X21184Y117199D01*
X21159Y117287D01*
X21132Y117374D01*
X21100Y117459D01*
X21066Y117543D01*
X21027Y117626D01*
X20986Y117707D01*
X20941Y117786D01*
X20893Y117863D01*
X20841Y117938D01*
X20787Y118011D01*
X20730Y118082D01*
X20669Y118150D01*
X20606Y118215D01*
X20541Y118278D01*
X20473Y118339D01*
X20402Y118396D01*
X20329Y118450D01*
X20254Y118502D01*
X20177Y118550D01*
X20098Y118595D01*
X20017Y118636D01*
X19934Y118675D01*
X19850Y118709D01*
X19765Y118741D01*
X19678Y118768D01*
X19590Y118793D01*
X19502Y118813D01*
X19412Y118830D01*
X19322Y118843D01*
X19232Y118852D01*
X19141Y118858D01*
X19050Y118860D01*
X19050Y118861D02*
X12446Y118861D01*
X17582Y125613D02*
X16115Y129282D01*
X17582Y125612D02*
X17616Y125533D01*
X17654Y125455D01*
X17695Y125378D01*
X17739Y125304D01*
X17787Y125232D01*
X17838Y125162D01*
X17892Y125095D01*
X17949Y125030D01*
X18010Y124967D01*
X18072Y124908D01*
X18138Y124851D01*
X18206Y124798D01*
X18276Y124747D01*
X18349Y124700D01*
X18424Y124656D01*
X18500Y124616D01*
X18579Y124579D01*
X18658Y124546D01*
X18740Y124516D01*
X18822Y124490D01*
X18906Y124468D01*
X18991Y124450D01*
X19076Y124436D01*
X19162Y124425D01*
X19248Y124419D01*
X19335Y124416D01*
X19422Y124417D01*
X19508Y124423D01*
X19594Y124432D01*
X19680Y124445D01*
X19765Y124462D01*
X19849Y124483D01*
X19932Y124507D01*
X20013Y124536D01*
X20094Y124568D01*
X20173Y124603D01*
X20250Y124643D01*
X20325Y124685D01*
X20398Y124732D01*
X20470Y124781D01*
X20538Y124833D01*
X20605Y124889D01*
X20668Y124948D01*
X20729Y125009D01*
X20788Y125073D01*
X20843Y125140D01*
X20895Y125209D01*
X20944Y125281D01*
X20989Y125354D01*
X21031Y125430D01*
X21070Y125507D01*
X21105Y125586D01*
X21137Y125667D01*
X21165Y125749D01*
X21189Y125832D01*
X21209Y125916D01*
X21225Y126001D01*
X21238Y126087D01*
X21246Y126173D01*
X21251Y126260D01*
X21252Y126346D01*
X21251Y126346D02*
X21246Y126546D01*
X21236Y126746D01*
X21221Y126946D01*
X21201Y127146D01*
X21177Y127345D01*
X21147Y127543D01*
X21113Y127740D01*
X21075Y127937D01*
X21031Y128132D01*
X20983Y128327D01*
X20930Y128520D01*
X20873Y128712D01*
X20811Y128903D01*
X20744Y129092D01*
X20673Y129279D01*
X20597Y129464D01*
X20517Y129648D01*
X16115Y129282D02*
X16081Y129361D01*
X16043Y129439D01*
X16002Y129516D01*
X15958Y129590D01*
X15910Y129662D01*
X15859Y129732D01*
X15805Y129799D01*
X15748Y129864D01*
X15687Y129927D01*
X15625Y129986D01*
X15559Y130043D01*
X15491Y130096D01*
X15421Y130147D01*
X15348Y130194D01*
X15273Y130238D01*
X15197Y130278D01*
X15118Y130315D01*
X15039Y130348D01*
X14957Y130378D01*
X14875Y130404D01*
X14791Y130426D01*
X14706Y130444D01*
X14621Y130458D01*
X14535Y130469D01*
X14449Y130475D01*
X14362Y130478D01*
X14275Y130477D01*
X14189Y130471D01*
X14103Y130462D01*
X14017Y130449D01*
X13932Y130432D01*
X13848Y130411D01*
X13765Y130387D01*
X13684Y130358D01*
X13603Y130326D01*
X13524Y130291D01*
X13447Y130251D01*
X13372Y130209D01*
X13299Y130162D01*
X13227Y130113D01*
X13159Y130061D01*
X13092Y130005D01*
X13029Y129946D01*
X12968Y129885D01*
X12909Y129821D01*
X12854Y129754D01*
X12802Y129685D01*
X12753Y129613D01*
X12708Y129540D01*
X12666Y129464D01*
X12627Y129387D01*
X12592Y129308D01*
X12560Y129227D01*
X12532Y129145D01*
X12508Y129062D01*
X12488Y128978D01*
X12472Y128893D01*
X12459Y128807D01*
X12451Y128721D01*
X12446Y128634D01*
X12445Y128548D01*
X12446Y128548D02*
X12454Y128254D01*
X12469Y127960D01*
X12490Y127666D01*
X12519Y127373D01*
X12554Y127081D01*
X12597Y126790D01*
X12646Y126500D01*
X12702Y126211D01*
X12765Y125923D01*
X12834Y125637D01*
X12911Y125353D01*
X12994Y125071D01*
X13084Y124791D01*
X13180Y124512D01*
X15381Y135607D02*
X18316Y135607D01*
X18423Y135609D01*
X18530Y135615D01*
X18637Y135625D01*
X18743Y135638D01*
X18849Y135656D01*
X18954Y135677D01*
X19058Y135702D01*
X19162Y135731D01*
X19264Y135764D01*
X19364Y135801D01*
X19464Y135841D01*
X19562Y135885D01*
X19658Y135932D01*
X19752Y135983D01*
X19845Y136037D01*
X19935Y136094D01*
X20024Y136155D01*
X20110Y136219D01*
X20193Y136286D01*
X20275Y136356D01*
X20353Y136429D01*
X20429Y136505D01*
X20502Y136583D01*
X20572Y136665D01*
X20639Y136748D01*
X20703Y136834D01*
X20764Y136923D01*
X20821Y137013D01*
X20875Y137106D01*
X20926Y137200D01*
X20973Y137296D01*
X21017Y137394D01*
X21057Y137494D01*
X21094Y137594D01*
X21127Y137696D01*
X21156Y137800D01*
X21181Y137904D01*
X21202Y138009D01*
X21220Y138115D01*
X21233Y138221D01*
X21243Y138328D01*
X21249Y138435D01*
X21251Y138542D01*
X21249Y138649D01*
X21243Y138756D01*
X21233Y138863D01*
X21220Y138969D01*
X21202Y139075D01*
X21181Y139180D01*
X21156Y139284D01*
X21127Y139388D01*
X21094Y139490D01*
X21057Y139590D01*
X21017Y139690D01*
X20973Y139788D01*
X20926Y139884D01*
X20875Y139978D01*
X20821Y140071D01*
X20764Y140161D01*
X20703Y140250D01*
X20639Y140336D01*
X20572Y140419D01*
X20502Y140501D01*
X20429Y140579D01*
X20353Y140655D01*
X20275Y140728D01*
X20193Y140798D01*
X20110Y140865D01*
X20024Y140929D01*
X19935Y140990D01*
X19845Y141047D01*
X19752Y141101D01*
X19658Y141152D01*
X19562Y141199D01*
X19464Y141243D01*
X19364Y141283D01*
X19264Y141320D01*
X19162Y141353D01*
X19058Y141382D01*
X18954Y141407D01*
X18849Y141428D01*
X18743Y141446D01*
X18637Y141459D01*
X18530Y141469D01*
X18423Y141475D01*
X18316Y141477D01*
X15381Y141477D01*
X15274Y141475D01*
X15167Y141469D01*
X15060Y141459D01*
X14954Y141446D01*
X14848Y141428D01*
X14743Y141407D01*
X14639Y141382D01*
X14535Y141353D01*
X14433Y141320D01*
X14333Y141283D01*
X14233Y141243D01*
X14135Y141199D01*
X14039Y141152D01*
X13945Y141101D01*
X13852Y141047D01*
X13762Y140990D01*
X13673Y140929D01*
X13587Y140865D01*
X13504Y140798D01*
X13422Y140728D01*
X13344Y140655D01*
X13268Y140579D01*
X13195Y140501D01*
X13125Y140419D01*
X13058Y140336D01*
X12994Y140250D01*
X12933Y140161D01*
X12876Y140071D01*
X12822Y139978D01*
X12771Y139884D01*
X12724Y139788D01*
X12680Y139690D01*
X12640Y139590D01*
X12603Y139490D01*
X12570Y139388D01*
X12541Y139284D01*
X12516Y139180D01*
X12495Y139075D01*
X12477Y138969D01*
X12464Y138863D01*
X12454Y138756D01*
X12448Y138649D01*
X12446Y138542D01*
X12448Y138435D01*
X12454Y138328D01*
X12464Y138221D01*
X12477Y138115D01*
X12495Y138009D01*
X12516Y137904D01*
X12541Y137800D01*
X12570Y137696D01*
X12603Y137594D01*
X12640Y137494D01*
X12680Y137394D01*
X12724Y137296D01*
X12771Y137200D01*
X12822Y137106D01*
X12876Y137013D01*
X12933Y136923D01*
X12994Y136834D01*
X13058Y136748D01*
X13125Y136665D01*
X13195Y136583D01*
X13268Y136505D01*
X13344Y136429D01*
X13422Y136356D01*
X13504Y136286D01*
X13587Y136219D01*
X13673Y136155D01*
X13762Y136094D01*
X13852Y136037D01*
X13945Y135983D01*
X14039Y135932D01*
X14135Y135885D01*
X14233Y135841D01*
X14333Y135801D01*
X14433Y135764D01*
X14535Y135731D01*
X14639Y135702D01*
X14743Y135677D01*
X14848Y135656D01*
X14954Y135638D01*
X15060Y135625D01*
X15167Y135615D01*
X15274Y135609D01*
X15381Y135607D01*
X14647Y146883D02*
X25654Y146883D01*
X14647Y146883D02*
X14556Y146885D01*
X14465Y146891D01*
X14375Y146900D01*
X14285Y146913D01*
X14195Y146930D01*
X14107Y146950D01*
X14019Y146975D01*
X13932Y147002D01*
X13847Y147034D01*
X13763Y147068D01*
X13680Y147107D01*
X13599Y147148D01*
X13520Y147193D01*
X13443Y147241D01*
X13368Y147293D01*
X13295Y147347D01*
X13224Y147404D01*
X13156Y147465D01*
X13091Y147528D01*
X13028Y147593D01*
X12967Y147661D01*
X12910Y147732D01*
X12856Y147805D01*
X12804Y147880D01*
X12756Y147957D01*
X12711Y148036D01*
X12670Y148117D01*
X12631Y148200D01*
X12597Y148284D01*
X12565Y148369D01*
X12538Y148456D01*
X12513Y148544D01*
X12493Y148632D01*
X12476Y148722D01*
X12463Y148812D01*
X12454Y148902D01*
X12448Y148993D01*
X12446Y149084D01*
X12446Y155730D02*
X12446Y159399D01*
X12446Y155730D02*
X12448Y155639D01*
X12454Y155548D01*
X12463Y155458D01*
X12476Y155368D01*
X12493Y155278D01*
X12513Y155190D01*
X12538Y155102D01*
X12565Y155015D01*
X12597Y154930D01*
X12631Y154846D01*
X12670Y154763D01*
X12711Y154682D01*
X12756Y154603D01*
X12804Y154526D01*
X12856Y154451D01*
X12910Y154378D01*
X12967Y154307D01*
X13028Y154239D01*
X13091Y154174D01*
X13156Y154111D01*
X13224Y154050D01*
X13295Y153993D01*
X13368Y153939D01*
X13443Y153887D01*
X13520Y153839D01*
X13599Y153794D01*
X13680Y153753D01*
X13763Y153714D01*
X13847Y153680D01*
X13932Y153648D01*
X14019Y153621D01*
X14107Y153596D01*
X14195Y153576D01*
X14285Y153559D01*
X14375Y153546D01*
X14465Y153537D01*
X14556Y153531D01*
X14647Y153529D01*
X18316Y153529D01*
X18423Y153531D01*
X18530Y153537D01*
X18637Y153547D01*
X18743Y153560D01*
X18849Y153578D01*
X18954Y153599D01*
X19058Y153624D01*
X19162Y153653D01*
X19264Y153686D01*
X19364Y153723D01*
X19464Y153763D01*
X19562Y153807D01*
X19658Y153854D01*
X19752Y153905D01*
X19845Y153959D01*
X19935Y154016D01*
X20024Y154077D01*
X20110Y154141D01*
X20193Y154208D01*
X20275Y154278D01*
X20353Y154351D01*
X20429Y154427D01*
X20502Y154505D01*
X20572Y154587D01*
X20639Y154670D01*
X20703Y154756D01*
X20764Y154845D01*
X20821Y154935D01*
X20875Y155028D01*
X20926Y155122D01*
X20973Y155218D01*
X21017Y155316D01*
X21057Y155416D01*
X21094Y155516D01*
X21127Y155618D01*
X21156Y155722D01*
X21181Y155826D01*
X21202Y155931D01*
X21220Y156037D01*
X21233Y156143D01*
X21243Y156250D01*
X21249Y156357D01*
X21251Y156464D01*
X21249Y156571D01*
X21243Y156678D01*
X21233Y156785D01*
X21220Y156891D01*
X21202Y156997D01*
X21181Y157102D01*
X21156Y157206D01*
X21127Y157310D01*
X21094Y157412D01*
X21057Y157512D01*
X21017Y157612D01*
X20973Y157710D01*
X20926Y157806D01*
X20875Y157900D01*
X20821Y157993D01*
X20764Y158083D01*
X20703Y158172D01*
X20639Y158258D01*
X20572Y158341D01*
X20502Y158423D01*
X20429Y158501D01*
X20353Y158577D01*
X20275Y158650D01*
X20193Y158720D01*
X20110Y158787D01*
X20024Y158851D01*
X19935Y158912D01*
X19845Y158969D01*
X19752Y159023D01*
X19658Y159074D01*
X19562Y159121D01*
X19464Y159165D01*
X19364Y159205D01*
X19264Y159242D01*
X19162Y159275D01*
X19058Y159304D01*
X18954Y159329D01*
X18849Y159350D01*
X18743Y159368D01*
X18637Y159381D01*
X18530Y159391D01*
X18423Y159397D01*
X18316Y159399D01*
X16849Y159399D01*
X16849Y153529D01*
X17582Y165724D02*
X16115Y169393D01*
X17582Y165724D02*
X17616Y165645D01*
X17654Y165567D01*
X17695Y165490D01*
X17739Y165416D01*
X17787Y165344D01*
X17838Y165274D01*
X17892Y165207D01*
X17949Y165142D01*
X18010Y165079D01*
X18072Y165020D01*
X18138Y164963D01*
X18206Y164910D01*
X18276Y164859D01*
X18349Y164812D01*
X18424Y164768D01*
X18500Y164728D01*
X18579Y164691D01*
X18658Y164658D01*
X18740Y164628D01*
X18822Y164602D01*
X18906Y164580D01*
X18991Y164562D01*
X19076Y164548D01*
X19162Y164537D01*
X19248Y164531D01*
X19335Y164528D01*
X19422Y164529D01*
X19508Y164535D01*
X19594Y164544D01*
X19680Y164557D01*
X19765Y164574D01*
X19849Y164595D01*
X19932Y164619D01*
X20013Y164648D01*
X20094Y164680D01*
X20173Y164715D01*
X20250Y164755D01*
X20325Y164797D01*
X20398Y164844D01*
X20470Y164893D01*
X20538Y164945D01*
X20605Y165001D01*
X20668Y165060D01*
X20729Y165121D01*
X20788Y165185D01*
X20843Y165252D01*
X20895Y165321D01*
X20944Y165393D01*
X20989Y165466D01*
X21031Y165542D01*
X21070Y165619D01*
X21105Y165698D01*
X21137Y165779D01*
X21165Y165861D01*
X21189Y165944D01*
X21209Y166028D01*
X21225Y166113D01*
X21238Y166199D01*
X21246Y166285D01*
X21251Y166372D01*
X21252Y166458D01*
X21251Y166458D02*
X21246Y166658D01*
X21236Y166858D01*
X21221Y167058D01*
X21201Y167258D01*
X21177Y167457D01*
X21147Y167655D01*
X21113Y167852D01*
X21075Y168049D01*
X21031Y168244D01*
X20983Y168439D01*
X20930Y168632D01*
X20873Y168824D01*
X20811Y169015D01*
X20744Y169204D01*
X20673Y169391D01*
X20597Y169576D01*
X20517Y169760D01*
X16115Y169394D02*
X16081Y169473D01*
X16043Y169551D01*
X16002Y169628D01*
X15958Y169702D01*
X15910Y169774D01*
X15859Y169844D01*
X15805Y169911D01*
X15748Y169976D01*
X15687Y170039D01*
X15625Y170098D01*
X15559Y170155D01*
X15491Y170208D01*
X15421Y170259D01*
X15348Y170306D01*
X15273Y170350D01*
X15197Y170390D01*
X15118Y170427D01*
X15039Y170460D01*
X14957Y170490D01*
X14875Y170516D01*
X14791Y170538D01*
X14706Y170556D01*
X14621Y170570D01*
X14535Y170581D01*
X14449Y170587D01*
X14362Y170590D01*
X14275Y170589D01*
X14189Y170583D01*
X14103Y170574D01*
X14017Y170561D01*
X13932Y170544D01*
X13848Y170523D01*
X13765Y170499D01*
X13684Y170470D01*
X13603Y170438D01*
X13524Y170403D01*
X13447Y170363D01*
X13372Y170321D01*
X13299Y170274D01*
X13227Y170225D01*
X13159Y170173D01*
X13092Y170117D01*
X13029Y170058D01*
X12968Y169997D01*
X12909Y169933D01*
X12854Y169866D01*
X12802Y169797D01*
X12753Y169725D01*
X12708Y169652D01*
X12666Y169576D01*
X12627Y169499D01*
X12592Y169420D01*
X12560Y169339D01*
X12532Y169257D01*
X12508Y169174D01*
X12488Y169090D01*
X12472Y169005D01*
X12459Y168919D01*
X12451Y168833D01*
X12446Y168746D01*
X12445Y168660D01*
X12446Y168659D02*
X12454Y168365D01*
X12469Y168071D01*
X12490Y167777D01*
X12519Y167484D01*
X12554Y167192D01*
X12597Y166901D01*
X12646Y166611D01*
X12702Y166322D01*
X12765Y166034D01*
X12834Y165748D01*
X12911Y165464D01*
X12994Y165182D01*
X13084Y164902D01*
X13180Y164623D01*
X14647Y176145D02*
X21251Y176145D01*
X14647Y176145D02*
X14556Y176147D01*
X14465Y176153D01*
X14375Y176162D01*
X14285Y176175D01*
X14195Y176192D01*
X14107Y176212D01*
X14019Y176237D01*
X13932Y176264D01*
X13847Y176296D01*
X13763Y176330D01*
X13680Y176369D01*
X13599Y176410D01*
X13520Y176455D01*
X13443Y176503D01*
X13368Y176555D01*
X13295Y176609D01*
X13224Y176666D01*
X13156Y176727D01*
X13091Y176790D01*
X13028Y176855D01*
X12967Y176923D01*
X12910Y176994D01*
X12856Y177067D01*
X12804Y177142D01*
X12756Y177219D01*
X12711Y177298D01*
X12670Y177379D01*
X12631Y177462D01*
X12597Y177546D01*
X12565Y177631D01*
X12538Y177718D01*
X12513Y177806D01*
X12493Y177894D01*
X12476Y177984D01*
X12463Y178074D01*
X12454Y178164D01*
X12448Y178255D01*
X12446Y178346D01*
X12446Y182015D01*
X21251Y182015D01*
X21251Y188093D02*
X12446Y188093D01*
X21251Y188093D02*
X21251Y191762D01*
X21249Y191853D01*
X21243Y191944D01*
X21234Y192034D01*
X21221Y192124D01*
X21204Y192214D01*
X21184Y192302D01*
X21159Y192390D01*
X21132Y192477D01*
X21100Y192562D01*
X21066Y192646D01*
X21027Y192729D01*
X20986Y192810D01*
X20941Y192889D01*
X20893Y192966D01*
X20841Y193041D01*
X20787Y193114D01*
X20730Y193185D01*
X20669Y193253D01*
X20606Y193318D01*
X20541Y193381D01*
X20473Y193442D01*
X20402Y193499D01*
X20329Y193553D01*
X20254Y193605D01*
X20177Y193653D01*
X20098Y193698D01*
X20017Y193739D01*
X19934Y193778D01*
X19850Y193812D01*
X19765Y193844D01*
X19678Y193871D01*
X19590Y193896D01*
X19502Y193916D01*
X19412Y193933D01*
X19322Y193946D01*
X19232Y193955D01*
X19141Y193961D01*
X19050Y193963D01*
X12446Y193963D01*
X14647Y199796D02*
X25654Y199796D01*
X14647Y199796D02*
X14556Y199798D01*
X14465Y199804D01*
X14375Y199813D01*
X14285Y199826D01*
X14195Y199843D01*
X14107Y199863D01*
X14019Y199888D01*
X13932Y199915D01*
X13847Y199947D01*
X13763Y199981D01*
X13680Y200020D01*
X13599Y200061D01*
X13520Y200106D01*
X13443Y200154D01*
X13368Y200206D01*
X13295Y200260D01*
X13224Y200317D01*
X13156Y200378D01*
X13091Y200441D01*
X13028Y200506D01*
X12967Y200574D01*
X12910Y200645D01*
X12856Y200718D01*
X12804Y200793D01*
X12756Y200870D01*
X12711Y200949D01*
X12670Y201030D01*
X12631Y201113D01*
X12597Y201197D01*
X12565Y201282D01*
X12538Y201369D01*
X12513Y201457D01*
X12493Y201545D01*
X12476Y201635D01*
X12463Y201725D01*
X12454Y201815D01*
X12448Y201906D01*
X12446Y201997D01*
X12446Y208643D02*
X12446Y212312D01*
X12446Y208643D02*
X12448Y208552D01*
X12454Y208461D01*
X12463Y208371D01*
X12476Y208281D01*
X12493Y208191D01*
X12513Y208103D01*
X12538Y208015D01*
X12565Y207928D01*
X12597Y207843D01*
X12631Y207759D01*
X12670Y207676D01*
X12711Y207595D01*
X12756Y207516D01*
X12804Y207439D01*
X12856Y207364D01*
X12910Y207291D01*
X12967Y207220D01*
X13028Y207152D01*
X13091Y207087D01*
X13156Y207024D01*
X13224Y206963D01*
X13295Y206906D01*
X13368Y206852D01*
X13443Y206800D01*
X13520Y206752D01*
X13599Y206707D01*
X13680Y206666D01*
X13763Y206627D01*
X13847Y206593D01*
X13932Y206561D01*
X14019Y206534D01*
X14107Y206509D01*
X14195Y206489D01*
X14285Y206472D01*
X14375Y206459D01*
X14465Y206450D01*
X14556Y206444D01*
X14647Y206442D01*
X18316Y206442D01*
X18423Y206444D01*
X18530Y206450D01*
X18637Y206460D01*
X18743Y206473D01*
X18849Y206491D01*
X18954Y206512D01*
X19058Y206537D01*
X19162Y206566D01*
X19264Y206599D01*
X19364Y206636D01*
X19464Y206676D01*
X19562Y206720D01*
X19658Y206767D01*
X19752Y206818D01*
X19845Y206872D01*
X19935Y206929D01*
X20024Y206990D01*
X20110Y207054D01*
X20193Y207121D01*
X20275Y207191D01*
X20353Y207264D01*
X20429Y207340D01*
X20502Y207418D01*
X20572Y207500D01*
X20639Y207583D01*
X20703Y207669D01*
X20764Y207758D01*
X20821Y207848D01*
X20875Y207941D01*
X20926Y208035D01*
X20973Y208131D01*
X21017Y208229D01*
X21057Y208329D01*
X21094Y208429D01*
X21127Y208531D01*
X21156Y208635D01*
X21181Y208739D01*
X21202Y208844D01*
X21220Y208950D01*
X21233Y209056D01*
X21243Y209163D01*
X21249Y209270D01*
X21251Y209377D01*
X21249Y209484D01*
X21243Y209591D01*
X21233Y209698D01*
X21220Y209804D01*
X21202Y209910D01*
X21181Y210015D01*
X21156Y210119D01*
X21127Y210223D01*
X21094Y210325D01*
X21057Y210425D01*
X21017Y210525D01*
X20973Y210623D01*
X20926Y210719D01*
X20875Y210813D01*
X20821Y210906D01*
X20764Y210996D01*
X20703Y211085D01*
X20639Y211171D01*
X20572Y211254D01*
X20502Y211336D01*
X20429Y211414D01*
X20353Y211490D01*
X20275Y211563D01*
X20193Y211633D01*
X20110Y211700D01*
X20024Y211764D01*
X19935Y211825D01*
X19845Y211882D01*
X19752Y211936D01*
X19658Y211987D01*
X19562Y212034D01*
X19464Y212078D01*
X19364Y212118D01*
X19264Y212155D01*
X19162Y212188D01*
X19058Y212217D01*
X18954Y212242D01*
X18849Y212263D01*
X18743Y212281D01*
X18637Y212294D01*
X18530Y212304D01*
X18423Y212310D01*
X18316Y212312D01*
X16849Y212312D01*
X16849Y206442D01*
X17582Y220043D02*
X17582Y223345D01*
X17582Y220043D02*
X17580Y219943D01*
X17574Y219844D01*
X17565Y219745D01*
X17551Y219646D01*
X17534Y219548D01*
X17513Y219451D01*
X17488Y219354D01*
X17459Y219259D01*
X17427Y219165D01*
X17391Y219072D01*
X17352Y218980D01*
X17309Y218890D01*
X17262Y218802D01*
X17213Y218716D01*
X17160Y218632D01*
X17103Y218550D01*
X17044Y218470D01*
X16981Y218392D01*
X16916Y218317D01*
X16847Y218245D01*
X16776Y218175D01*
X16703Y218108D01*
X16626Y218044D01*
X16548Y217983D01*
X16466Y217925D01*
X16383Y217871D01*
X16298Y217819D01*
X16211Y217771D01*
X16122Y217726D01*
X16031Y217685D01*
X15939Y217647D01*
X15845Y217613D01*
X15751Y217583D01*
X15655Y217556D01*
X15558Y217533D01*
X15460Y217514D01*
X15362Y217499D01*
X15263Y217487D01*
X15163Y217479D01*
X15064Y217475D01*
X14964Y217475D01*
X14865Y217479D01*
X14765Y217487D01*
X14666Y217499D01*
X14568Y217514D01*
X14470Y217533D01*
X14373Y217556D01*
X14277Y217583D01*
X14183Y217613D01*
X14089Y217647D01*
X13997Y217685D01*
X13906Y217726D01*
X13817Y217771D01*
X13730Y217819D01*
X13645Y217871D01*
X13562Y217925D01*
X13480Y217983D01*
X13402Y218044D01*
X13325Y218108D01*
X13252Y218175D01*
X13181Y218245D01*
X13112Y218317D01*
X13047Y218392D01*
X12984Y218470D01*
X12925Y218550D01*
X12868Y218632D01*
X12815Y218716D01*
X12766Y218802D01*
X12719Y218890D01*
X12676Y218980D01*
X12637Y219072D01*
X12601Y219165D01*
X12569Y219259D01*
X12540Y219354D01*
X12515Y219451D01*
X12494Y219548D01*
X12477Y219646D01*
X12463Y219745D01*
X12454Y219844D01*
X12448Y219943D01*
X12446Y220043D01*
X12446Y223345D01*
X19050Y223345D01*
X19050Y223344D02*
X19141Y223342D01*
X19232Y223336D01*
X19322Y223327D01*
X19412Y223314D01*
X19502Y223297D01*
X19590Y223277D01*
X19678Y223252D01*
X19765Y223225D01*
X19850Y223193D01*
X19934Y223159D01*
X20017Y223120D01*
X20098Y223079D01*
X20177Y223034D01*
X20254Y222986D01*
X20329Y222934D01*
X20402Y222880D01*
X20473Y222823D01*
X20541Y222762D01*
X20606Y222699D01*
X20669Y222634D01*
X20730Y222566D01*
X20787Y222495D01*
X20841Y222422D01*
X20893Y222347D01*
X20941Y222270D01*
X20986Y222191D01*
X21027Y222110D01*
X21066Y222027D01*
X21100Y221943D01*
X21132Y221858D01*
X21159Y221771D01*
X21184Y221683D01*
X21204Y221595D01*
X21221Y221505D01*
X21234Y221415D01*
X21243Y221325D01*
X21249Y221234D01*
X21251Y221143D01*
X21251Y218208D01*
X17582Y230159D02*
X16115Y233828D01*
X17582Y230158D02*
X17616Y230079D01*
X17654Y230001D01*
X17695Y229924D01*
X17739Y229850D01*
X17787Y229778D01*
X17838Y229708D01*
X17892Y229641D01*
X17949Y229576D01*
X18010Y229513D01*
X18072Y229454D01*
X18138Y229397D01*
X18206Y229344D01*
X18276Y229293D01*
X18349Y229246D01*
X18424Y229202D01*
X18500Y229162D01*
X18579Y229125D01*
X18658Y229092D01*
X18740Y229062D01*
X18822Y229036D01*
X18906Y229014D01*
X18991Y228996D01*
X19076Y228982D01*
X19162Y228971D01*
X19248Y228965D01*
X19335Y228962D01*
X19422Y228963D01*
X19508Y228969D01*
X19594Y228978D01*
X19680Y228991D01*
X19765Y229008D01*
X19849Y229029D01*
X19932Y229053D01*
X20013Y229082D01*
X20094Y229114D01*
X20173Y229149D01*
X20250Y229189D01*
X20325Y229231D01*
X20398Y229278D01*
X20470Y229327D01*
X20538Y229379D01*
X20605Y229435D01*
X20668Y229494D01*
X20729Y229555D01*
X20788Y229619D01*
X20843Y229686D01*
X20895Y229755D01*
X20944Y229827D01*
X20989Y229900D01*
X21031Y229976D01*
X21070Y230053D01*
X21105Y230132D01*
X21137Y230213D01*
X21165Y230295D01*
X21189Y230378D01*
X21209Y230462D01*
X21225Y230547D01*
X21238Y230633D01*
X21246Y230719D01*
X21251Y230806D01*
X21252Y230892D01*
X21251Y230893D02*
X21246Y231093D01*
X21236Y231293D01*
X21221Y231493D01*
X21201Y231693D01*
X21177Y231892D01*
X21147Y232090D01*
X21113Y232287D01*
X21075Y232484D01*
X21031Y232679D01*
X20983Y232874D01*
X20930Y233067D01*
X20873Y233259D01*
X20811Y233450D01*
X20744Y233639D01*
X20673Y233826D01*
X20597Y234011D01*
X20517Y234195D01*
X16115Y233828D02*
X16081Y233907D01*
X16043Y233985D01*
X16002Y234062D01*
X15958Y234136D01*
X15910Y234208D01*
X15859Y234278D01*
X15805Y234345D01*
X15748Y234410D01*
X15687Y234473D01*
X15625Y234532D01*
X15559Y234589D01*
X15491Y234642D01*
X15421Y234693D01*
X15348Y234740D01*
X15273Y234784D01*
X15197Y234824D01*
X15118Y234861D01*
X15039Y234894D01*
X14957Y234924D01*
X14875Y234950D01*
X14791Y234972D01*
X14706Y234990D01*
X14621Y235004D01*
X14535Y235015D01*
X14449Y235021D01*
X14362Y235024D01*
X14275Y235023D01*
X14189Y235017D01*
X14103Y235008D01*
X14017Y234995D01*
X13932Y234978D01*
X13848Y234957D01*
X13765Y234933D01*
X13684Y234904D01*
X13603Y234872D01*
X13524Y234837D01*
X13447Y234797D01*
X13372Y234755D01*
X13299Y234708D01*
X13227Y234659D01*
X13159Y234607D01*
X13092Y234551D01*
X13029Y234492D01*
X12968Y234431D01*
X12909Y234367D01*
X12854Y234300D01*
X12802Y234231D01*
X12753Y234159D01*
X12708Y234086D01*
X12666Y234010D01*
X12627Y233933D01*
X12592Y233854D01*
X12560Y233773D01*
X12532Y233691D01*
X12508Y233608D01*
X12488Y233524D01*
X12472Y233439D01*
X12459Y233353D01*
X12451Y233267D01*
X12446Y233180D01*
X12445Y233094D01*
X12446Y233094D02*
X12454Y232800D01*
X12469Y232506D01*
X12490Y232212D01*
X12519Y231919D01*
X12554Y231627D01*
X12597Y231336D01*
X12646Y231046D01*
X12702Y230757D01*
X12765Y230469D01*
X12834Y230183D01*
X12911Y229899D01*
X12994Y229617D01*
X13084Y229337D01*
X13180Y229058D01*
X12446Y240580D02*
X25654Y240580D01*
X21251Y240580D02*
X21251Y244249D01*
X21249Y244340D01*
X21243Y244431D01*
X21234Y244521D01*
X21221Y244611D01*
X21204Y244701D01*
X21184Y244789D01*
X21159Y244877D01*
X21132Y244964D01*
X21100Y245049D01*
X21066Y245133D01*
X21027Y245216D01*
X20986Y245297D01*
X20941Y245376D01*
X20893Y245453D01*
X20841Y245528D01*
X20787Y245601D01*
X20730Y245672D01*
X20669Y245740D01*
X20606Y245805D01*
X20541Y245868D01*
X20473Y245929D01*
X20402Y245986D01*
X20329Y246040D01*
X20254Y246092D01*
X20177Y246140D01*
X20098Y246185D01*
X20017Y246226D01*
X19934Y246265D01*
X19850Y246299D01*
X19765Y246331D01*
X19678Y246358D01*
X19590Y246383D01*
X19502Y246403D01*
X19412Y246420D01*
X19322Y246433D01*
X19232Y246442D01*
X19141Y246448D01*
X19050Y246450D01*
X12446Y246450D01*
X12446Y254302D02*
X12446Y257971D01*
X12446Y254302D02*
X12448Y254211D01*
X12454Y254120D01*
X12463Y254030D01*
X12476Y253940D01*
X12493Y253850D01*
X12513Y253762D01*
X12538Y253674D01*
X12565Y253587D01*
X12597Y253502D01*
X12631Y253418D01*
X12670Y253335D01*
X12711Y253254D01*
X12756Y253175D01*
X12804Y253098D01*
X12856Y253023D01*
X12910Y252950D01*
X12967Y252879D01*
X13028Y252811D01*
X13091Y252746D01*
X13156Y252683D01*
X13224Y252622D01*
X13295Y252565D01*
X13368Y252511D01*
X13443Y252459D01*
X13520Y252411D01*
X13599Y252366D01*
X13680Y252325D01*
X13763Y252286D01*
X13847Y252252D01*
X13932Y252220D01*
X14019Y252193D01*
X14107Y252168D01*
X14195Y252148D01*
X14285Y252131D01*
X14375Y252118D01*
X14465Y252109D01*
X14556Y252103D01*
X14647Y252101D01*
X18316Y252101D01*
X18423Y252103D01*
X18530Y252109D01*
X18637Y252119D01*
X18743Y252132D01*
X18849Y252150D01*
X18954Y252171D01*
X19058Y252196D01*
X19162Y252225D01*
X19264Y252258D01*
X19364Y252295D01*
X19464Y252335D01*
X19562Y252379D01*
X19658Y252426D01*
X19752Y252477D01*
X19845Y252531D01*
X19935Y252588D01*
X20024Y252649D01*
X20110Y252713D01*
X20193Y252780D01*
X20275Y252850D01*
X20353Y252923D01*
X20429Y252999D01*
X20502Y253077D01*
X20572Y253159D01*
X20639Y253242D01*
X20703Y253328D01*
X20764Y253417D01*
X20821Y253507D01*
X20875Y253600D01*
X20926Y253694D01*
X20973Y253790D01*
X21017Y253888D01*
X21057Y253988D01*
X21094Y254088D01*
X21127Y254190D01*
X21156Y254294D01*
X21181Y254398D01*
X21202Y254503D01*
X21220Y254609D01*
X21233Y254715D01*
X21243Y254822D01*
X21249Y254929D01*
X21251Y255036D01*
X21249Y255143D01*
X21243Y255250D01*
X21233Y255357D01*
X21220Y255463D01*
X21202Y255569D01*
X21181Y255674D01*
X21156Y255778D01*
X21127Y255882D01*
X21094Y255984D01*
X21057Y256084D01*
X21017Y256184D01*
X20973Y256282D01*
X20926Y256378D01*
X20875Y256472D01*
X20821Y256565D01*
X20764Y256655D01*
X20703Y256744D01*
X20639Y256830D01*
X20572Y256913D01*
X20502Y256995D01*
X20429Y257073D01*
X20353Y257149D01*
X20275Y257222D01*
X20193Y257292D01*
X20110Y257359D01*
X20024Y257423D01*
X19935Y257484D01*
X19845Y257541D01*
X19752Y257595D01*
X19658Y257646D01*
X19562Y257693D01*
X19464Y257737D01*
X19364Y257777D01*
X19264Y257814D01*
X19162Y257847D01*
X19058Y257876D01*
X18954Y257901D01*
X18849Y257922D01*
X18743Y257940D01*
X18637Y257953D01*
X18530Y257963D01*
X18423Y257969D01*
X18316Y257971D01*
X16849Y257971D01*
X16849Y252101D01*
X12446Y269004D02*
X25654Y269004D01*
X12446Y269004D02*
X12446Y265335D01*
X12448Y265244D01*
X12454Y265153D01*
X12463Y265063D01*
X12476Y264973D01*
X12493Y264883D01*
X12513Y264795D01*
X12538Y264707D01*
X12565Y264620D01*
X12597Y264535D01*
X12631Y264451D01*
X12670Y264368D01*
X12711Y264287D01*
X12756Y264208D01*
X12804Y264131D01*
X12856Y264056D01*
X12910Y263983D01*
X12967Y263912D01*
X13028Y263844D01*
X13091Y263779D01*
X13156Y263716D01*
X13224Y263655D01*
X13295Y263598D01*
X13368Y263544D01*
X13443Y263492D01*
X13520Y263444D01*
X13599Y263399D01*
X13680Y263358D01*
X13763Y263319D01*
X13847Y263285D01*
X13932Y263253D01*
X14019Y263226D01*
X14107Y263201D01*
X14195Y263181D01*
X14285Y263164D01*
X14375Y263151D01*
X14465Y263142D01*
X14556Y263136D01*
X14647Y263134D01*
X14647Y263133D02*
X19050Y263133D01*
X19050Y263134D02*
X19141Y263136D01*
X19232Y263142D01*
X19322Y263151D01*
X19412Y263164D01*
X19502Y263181D01*
X19590Y263201D01*
X19678Y263226D01*
X19765Y263253D01*
X19850Y263285D01*
X19934Y263319D01*
X20017Y263358D01*
X20098Y263399D01*
X20177Y263444D01*
X20254Y263492D01*
X20329Y263544D01*
X20402Y263598D01*
X20473Y263655D01*
X20541Y263716D01*
X20606Y263779D01*
X20669Y263844D01*
X20730Y263912D01*
X20787Y263983D01*
X20841Y264056D01*
X20893Y264131D01*
X20941Y264208D01*
X20986Y264287D01*
X21027Y264368D01*
X21066Y264451D01*
X21100Y264535D01*
X21132Y264620D01*
X21159Y264707D01*
X21184Y264795D01*
X21204Y264883D01*
X21221Y264973D01*
X21234Y265063D01*
X21243Y265153D01*
X21249Y265244D01*
X21251Y265335D01*
X21251Y269004D01*
X13180Y274298D02*
X12446Y274298D01*
X13180Y274298D02*
X13180Y275032D01*
X12446Y275032D01*
X12446Y274298D01*
X12446Y282053D02*
X12446Y284988D01*
X12446Y282053D02*
X12448Y281962D01*
X12454Y281871D01*
X12463Y281781D01*
X12476Y281691D01*
X12493Y281601D01*
X12513Y281513D01*
X12538Y281425D01*
X12565Y281338D01*
X12597Y281253D01*
X12631Y281169D01*
X12670Y281086D01*
X12711Y281005D01*
X12756Y280926D01*
X12804Y280849D01*
X12856Y280774D01*
X12910Y280701D01*
X12967Y280630D01*
X13028Y280562D01*
X13091Y280497D01*
X13156Y280434D01*
X13224Y280373D01*
X13295Y280316D01*
X13368Y280262D01*
X13443Y280210D01*
X13520Y280162D01*
X13599Y280117D01*
X13680Y280076D01*
X13763Y280037D01*
X13847Y280003D01*
X13932Y279971D01*
X14019Y279944D01*
X14107Y279919D01*
X14195Y279899D01*
X14285Y279882D01*
X14375Y279869D01*
X14465Y279860D01*
X14556Y279854D01*
X14647Y279852D01*
X19050Y279852D01*
X19141Y279854D01*
X19232Y279860D01*
X19322Y279869D01*
X19412Y279882D01*
X19502Y279899D01*
X19590Y279919D01*
X19678Y279944D01*
X19765Y279971D01*
X19850Y280003D01*
X19934Y280037D01*
X20017Y280076D01*
X20098Y280117D01*
X20177Y280162D01*
X20254Y280210D01*
X20329Y280262D01*
X20402Y280316D01*
X20473Y280373D01*
X20541Y280434D01*
X20606Y280497D01*
X20669Y280562D01*
X20730Y280630D01*
X20787Y280701D01*
X20841Y280774D01*
X20893Y280849D01*
X20941Y280926D01*
X20986Y281005D01*
X21027Y281086D01*
X21066Y281169D01*
X21100Y281253D01*
X21132Y281338D01*
X21159Y281425D01*
X21184Y281513D01*
X21204Y281601D01*
X21221Y281691D01*
X21234Y281781D01*
X21243Y281871D01*
X21249Y281962D01*
X21251Y282053D01*
X21251Y284988D01*
X18316Y289652D02*
X15381Y289652D01*
X18316Y289653D02*
X18423Y289655D01*
X18530Y289661D01*
X18637Y289671D01*
X18743Y289684D01*
X18849Y289702D01*
X18954Y289723D01*
X19058Y289748D01*
X19162Y289777D01*
X19264Y289810D01*
X19364Y289847D01*
X19464Y289887D01*
X19562Y289931D01*
X19658Y289978D01*
X19752Y290029D01*
X19845Y290083D01*
X19935Y290140D01*
X20024Y290201D01*
X20110Y290265D01*
X20193Y290332D01*
X20275Y290402D01*
X20353Y290475D01*
X20429Y290551D01*
X20502Y290629D01*
X20572Y290711D01*
X20639Y290794D01*
X20703Y290880D01*
X20764Y290969D01*
X20821Y291059D01*
X20875Y291152D01*
X20926Y291246D01*
X20973Y291342D01*
X21017Y291440D01*
X21057Y291540D01*
X21094Y291640D01*
X21127Y291742D01*
X21156Y291846D01*
X21181Y291950D01*
X21202Y292055D01*
X21220Y292161D01*
X21233Y292267D01*
X21243Y292374D01*
X21249Y292481D01*
X21251Y292588D01*
X21249Y292695D01*
X21243Y292802D01*
X21233Y292909D01*
X21220Y293015D01*
X21202Y293121D01*
X21181Y293226D01*
X21156Y293330D01*
X21127Y293434D01*
X21094Y293536D01*
X21057Y293636D01*
X21017Y293736D01*
X20973Y293834D01*
X20926Y293930D01*
X20875Y294024D01*
X20821Y294117D01*
X20764Y294207D01*
X20703Y294296D01*
X20639Y294382D01*
X20572Y294465D01*
X20502Y294547D01*
X20429Y294625D01*
X20353Y294701D01*
X20275Y294774D01*
X20193Y294844D01*
X20110Y294911D01*
X20024Y294975D01*
X19935Y295036D01*
X19845Y295093D01*
X19752Y295147D01*
X19658Y295198D01*
X19562Y295245D01*
X19464Y295289D01*
X19364Y295329D01*
X19264Y295366D01*
X19162Y295399D01*
X19058Y295428D01*
X18954Y295453D01*
X18849Y295474D01*
X18743Y295492D01*
X18637Y295505D01*
X18530Y295515D01*
X18423Y295521D01*
X18316Y295523D01*
X15381Y295523D01*
X15274Y295521D01*
X15167Y295515D01*
X15060Y295505D01*
X14954Y295492D01*
X14848Y295474D01*
X14743Y295453D01*
X14639Y295428D01*
X14535Y295399D01*
X14433Y295366D01*
X14333Y295329D01*
X14233Y295289D01*
X14135Y295245D01*
X14039Y295198D01*
X13945Y295147D01*
X13852Y295093D01*
X13762Y295036D01*
X13673Y294975D01*
X13587Y294911D01*
X13504Y294844D01*
X13422Y294774D01*
X13344Y294701D01*
X13268Y294625D01*
X13195Y294547D01*
X13125Y294465D01*
X13058Y294382D01*
X12994Y294296D01*
X12933Y294207D01*
X12876Y294117D01*
X12822Y294024D01*
X12771Y293930D01*
X12724Y293834D01*
X12680Y293736D01*
X12640Y293636D01*
X12603Y293536D01*
X12570Y293434D01*
X12541Y293330D01*
X12516Y293226D01*
X12495Y293121D01*
X12477Y293015D01*
X12464Y292909D01*
X12454Y292802D01*
X12448Y292695D01*
X12446Y292588D01*
X12448Y292481D01*
X12454Y292374D01*
X12464Y292267D01*
X12477Y292161D01*
X12495Y292055D01*
X12516Y291950D01*
X12541Y291846D01*
X12570Y291742D01*
X12603Y291640D01*
X12640Y291540D01*
X12680Y291440D01*
X12724Y291342D01*
X12771Y291246D01*
X12822Y291152D01*
X12876Y291059D01*
X12933Y290969D01*
X12994Y290880D01*
X13058Y290794D01*
X13125Y290711D01*
X13195Y290629D01*
X13268Y290551D01*
X13344Y290475D01*
X13422Y290402D01*
X13504Y290332D01*
X13587Y290265D01*
X13673Y290201D01*
X13762Y290140D01*
X13852Y290083D01*
X13945Y290029D01*
X14039Y289978D01*
X14135Y289931D01*
X14233Y289887D01*
X14333Y289847D01*
X14433Y289810D01*
X14535Y289777D01*
X14639Y289748D01*
X14743Y289723D01*
X14848Y289702D01*
X14954Y289684D01*
X15060Y289671D01*
X15167Y289661D01*
X15274Y289655D01*
X15381Y289653D01*
X12446Y301413D02*
X21251Y301413D01*
X21251Y308017D01*
X21249Y308108D01*
X21243Y308199D01*
X21234Y308289D01*
X21221Y308379D01*
X21204Y308469D01*
X21184Y308557D01*
X21159Y308645D01*
X21132Y308732D01*
X21100Y308817D01*
X21066Y308901D01*
X21027Y308984D01*
X20986Y309065D01*
X20941Y309144D01*
X20893Y309221D01*
X20841Y309296D01*
X20787Y309369D01*
X20730Y309440D01*
X20669Y309508D01*
X20606Y309573D01*
X20541Y309636D01*
X20473Y309697D01*
X20402Y309754D01*
X20329Y309808D01*
X20254Y309860D01*
X20177Y309908D01*
X20098Y309953D01*
X20017Y309994D01*
X19934Y310033D01*
X19850Y310067D01*
X19765Y310099D01*
X19678Y310126D01*
X19590Y310151D01*
X19502Y310171D01*
X19412Y310188D01*
X19322Y310201D01*
X19232Y310210D01*
X19141Y310216D01*
X19050Y310218D01*
X12446Y310218D01*
X12446Y305816D02*
X21251Y305816D01*
M02*
